<?xml version="1.0" encoding="UTF-8"?>
<svg width="24px" height="25px" viewBox="0 0 24 25" version="1.1" xmlns="http://www.w3.org/2000/svg" xmlns:xlink="http://www.w3.org/1999/xlink">
    <defs>
        <circle id="path-1" cx="12" cy="12" r="12"></circle>
        <mask id="mask-2" maskContentUnits="userSpaceOnUse" maskUnits="objectBoundingBox" x="0" y="0" width="24" height="24" fill="white">
            <use xlink:href="#path-1"></use>
        </mask>
    </defs>
    <g id="Symbols" stroke="none" stroke-width="1" fill="none" fill-rule="evenodd">
        <g id="Quest">
            <g id="Layer_x0020_1" fill="#FF6E0A">
                <path d="M7.26181621,9.28557198 C7.26181621,8.68427164 7.45818854,8.07735166 7.83971193,7.45919243 C8.22684595,6.84103319 8.78790975,6.32964692 9.52290333,5.9250336 C10.2635075,5.52042028 11.1219352,5.31811362 12.1094074,5.31811362 C13.0239414,5.31811362 13.8318733,5.48670251 14.5388137,5.82388027 C15.2401434,6.16105803 15.7787647,6.62186765 16.1602881,7.2063091 C16.5418115,7.78513093 16.7325731,8.42014905 16.7325731,9.10012421 C16.7325731,9.63960863 16.6203604,10.1116575 16.4071561,10.5162708 C16.1883413,10.9208841 15.9302519,11.2693012 15.6328881,11.5615219 C15.3355243,11.8537426 14.796903,12.3538896 14.022635,13.0507237 C13.8038201,13.2474107 13.635501,13.4159996 13.5064563,13.5677296 C13.3774116,13.71384 13.2820308,13.8543307 13.2203138,13.9779625 C13.1529861,14.1015944 13.108101,14.2252262 13.0688265,14.3488581 C13.0351627,14.4724899 12.9790563,14.6916555 12.9117287,15.0007351 C12.7939053,15.6582317 12.4179925,15.9841702 11.7839904,15.9841702 C11.4585734,15.9841702 11.1780415,15.8773973 10.953616,15.6638514 C10.7291905,15.4446858 10.6169777,15.1299866 10.6169777,14.7028947 C10.6169777,14.1690299 10.6955267,13.71384 10.8638458,13.3204659 C11.0265543,12.9327115 11.2453692,12.5899141 11.5202905,12.2976933 C11.7896011,12.0054726 12.1599032,11.651436 12.6199755,11.2468226 C13.0239414,10.892786 13.3156946,10.6230438 13.495235,10.4488353 C13.6747754,10.2690071 13.8262627,10.0667005 13.9496967,9.84753492 C14.0731307,9.62836938 14.1348478,9.38672531 14.1348478,9.12260273 C14.1348478,8.61683608 13.9440861,8.18974425 13.573784,7.84132723 C13.1922606,7.4929102 12.7153563,7.31870169 12.1150181,7.31870169 C11.419299,7.31870169 10.9087309,7.4929102 10.5777033,7.84694686 C10.2522863,8.19536388 9.97175436,8.71798941 9.74732885,9.39796457 C9.52851396,10.1116575 9.12454803,10.4656942 8.52420976,10.4656942 C8.17073957,10.4656942 7.87337575,10.3420623 7.62650768,10.089179 C7.38525025,9.84191529 7.26181621,9.57217308 7.26181621,9.27995235 L7.26181621,9.28557198 Z M11.8849819,19.687506 C11.4978479,19.687506 11.1612096,19.5582545 10.8750671,19.3109908 C10.5889245,19.0637271 10.443048,18.7096905 10.443048,18.2601201 C10.443048,17.8611264 10.5833139,17.5295683 10.8582352,17.2542065 C11.1387671,16.9844643 11.4754053,16.8439735 11.8793713,16.8439735 C12.2777266,16.8439735 12.6143649,16.9788446 12.8836755,17.2542065 C13.1529861,17.5239487 13.2932521,17.8611264 13.2932521,18.2601201 C13.2932521,18.7040709 13.1529861,19.0524879 12.8668436,19.3053712 C12.580701,19.5582545 12.255284,19.687506 11.8793713,19.687506 L11.8849819,19.687506 Z" id="Shape"></path>
            </g>
            <use id="Oval-3" stroke="#FF6E0A" mask="url(#mask-2)" stroke-width="3" xlink:href="#path-1"></use>
        </g>
    </g>
</svg>
