<svg xmlns="http://www.w3.org/2000/svg" width="41.35294117647058" height="41.411764705882376"><rect id="backgroundrect" width="100%" height="100%" x="0" y="0" fill="none" stroke="none"/><defs><style>.cls-1{fill:#00364d;}.cls-2{fill:#009a61;}.cls-3{fill:#fff;}</style></defs><title>advcash</title><g class="currentLayer" style=""><title>Layer 1</title><g id="base" class=""><path class="cls-1" d="M-93.65353210449219,27.470588237047195 A6.29,6.29 0 0 1 -97.82353210449219,29.090588237047196 a4.67,4.67 0 0 1 -5,-4.77 a4.05,4.05 0 0 1 2.5700000000000003,-4 a11.88,11.88 0 0 1 3.85,-0.92 L-93.82353210449219,19.190588237047194 v-0.55 c0,-1.6500000000000001 -1.1,-2.39 -2.94,-2.39 a8.6,8.6 0 0 0 -3.85,1.1 L-101.90353210449219,14.970588237047195 A12.49,12.49 0 0 1 -96.21353210449219,13.470588237047195 c4,0 5.87,1.83 5.87,5.32 V24.870588237047194 a11.36,11.36 0 0 0 0.37000000000000005,3.85 H-93.10353210449219 zm-2.39,-5.5 a3.91,3.91 0 0 0 -2.2,0.55 a1.9300000000000002,1.9300000000000002 0 0 0 -0.92,1.6500000000000001 a2,2 0 0 0 2.2,2 a4.9,4.9 0 0 0 2.94,-1.1 V21.940588237047194 z" id="svg_1"/><path class="cls-1" d="M-88.14353210449218,21.570588237047197 c0,-4.77 3.49,-7.890000000000001 8.07,-7.890000000000001 a7.53,7.53 0 0 1 2,0.18000000000000002 V6.710588237047196 h3.67 V28.180588237047196 a13.41,13.41 0 0 1 -5.5,1.1 C-84.4735321044922,29.090588237047196 -88.14353210449218,26.530588237047194 -88.14353210449218,21.570588237047197 zm10.09,4.22 V16.980588237047197 a5.66,5.66 0 0 0 -1.83,-0.18000000000000002 a4.48,4.48 0 0 0 -4.59,4.77 a4.24,4.24 0 0 0 4.59,4.59 C-79.33353210449219,25.970588237047195 -78.60353210449219,25.970588237047195 -78.05353210449219,25.790588237047196 z" id="svg_2"/><path class="cls-1" d="M-73.10353210449219,14.050588237047196 h3.85 l3.67,10.09 h0 l3.67,-10.09 h3.67 L-64.29353210449219,28.910588237047197 H-67.04353210449219 z" id="svg_3"/><path class="cls-2" d="M-57.68353210449219,21.570588237047197 A7.72,7.72 0 0 1 -49.82353210449219,13.680588237047196 a10.07,10.07 0 0 1 4,0.92 v3.12 a6.2,6.2 0 0 0 -3.67,-1.1 c-2.75,0 -4.4,2 -4.4,4.77 c0,3.12 1.6500000000000001,4.77 4.22,4.77 a7,7 0 0 0 3.49,-0.92 l1.1,2.5700000000000003 a10,10 0 0 1 -5.14,1.47 A7.37,7.37 0 0 1 -57.68353210449219,21.570588237047197 z" id="svg_4"/><path class="cls-2" d="M-35.30353210449219,27.470588237047195 a6.29,6.29 0 0 1 -4.22,1.6500000000000001 a4.67,4.67 0 0 1 -5,-4.77 a4.05,4.05 0 0 1 2.5700000000000003,-4 a11.88,11.88 0 0 1 3.85,-0.92 l2.5700000000000003,-0.18000000000000002 v-0.55 c0,-1.6500000000000001 -1.1,-2.39 -2.94,-2.39 a8.6,8.6 0 0 0 -3.85,1.1 L-43.553532104492184,14.970588237047195 A12.49,12.49 0 0 1 -37.82353210449219,13.470588237047195 c4,0 5.87,1.83 5.87,5.32 V24.870588237047194 a11.36,11.36 0 0 0 0.37000000000000005,3.85 H-34.753532104492194 zm-2.39,-5.5 a3.91,3.91 0 0 0 -2.2,0.55 A1.9300000000000002,1.9300000000000002 0 0 0 -40.82353210449219,24.140588237047197 a2,2 0 0 0 2.2,2 a4.9,4.9 0 0 0 2.94,-1.1 V21.940588237047194 z" id="svg_5"/><path class="cls-2" d="M-29.063532104492182,24.870588237047194 a7.53,7.53 0 0 0 4,1.28 c1.47,0 2.5700000000000003,-0.37000000000000005 2.5700000000000003,-1.6500000000000001 c0,-2.5700000000000003 -7,-1.6500000000000001 -7,-6.42 c0,-2.5700000000000003 2.2,-4.4 5.69,-4.4 a15.77,15.77 0 0 1 4.4,0.7300000000000001 v3.12 a10.88,10.88 0 0 0 -4.22,-0.92 c-1.28,0 -2,0.37000000000000005 -2,1.28 c0,2.39 7,1.47 7,6.61 c0,3.3 -2.75,4.59 -6.06,4.59 a10.94,10.94 0 0 1 -5.5,-1.47 z" id="svg_6"/><path class="cls-2" d="M-16.583532104492193,6.710588237047196 h3.67 v9 a8,8 0 0 1 5,-2 c2.39,0 4.77,1.1 4.77,5.32 v9.72 H-6.8235321044921875 V20.100588237047194 c0,-1.83 -0.37000000000000005,-3.3 -2.2,-3.3 A6.08,6.08 0 0 0 -12.733532104492184,18.470588237047195 V28.730588237047197 H-16.403532104492186 v-22 z" id="svg_7"/><circle class="cls-2" cx="20.666465759277344" cy="20.470588237047195" r="20" id="svg_8"/><polygon class="cls-3" points="10.016464233398438,31.110587626695633 20.296470642089844,8.540587931871414 21.026466369628906,16.430588275194168 14.236465454101562,30.93058732151985 10.016464233398438,31.110587626695633 " id="svg_9"/><polygon class="cls-1" points="10.7564697265625,21.570588618516922 30.206466674804688,21.570588618516922 28.0064697265625,24.320588618516922 12.586471557617188,24.320588618516922 10.7564697265625,21.570588618516922 " id="svg_10"/><polygon class="cls-1" points="7.4564666748046875,16.62058785557747 33.136474609375,16.62058785557747 30.93646240234375,19.37058785557747 9.286468505859375,19.37058785557747 7.4564666748046875,16.62058785557747 " id="svg_11"/><polygon class="cls-3" points="30.56646728515625,31.110587626695633 20.296470642089844,8.540587931871414 19.56646728515625,16.430588275194168 26.346466064453125,30.93058732151985 30.56646728515625,31.110587626695633 " id="svg_12"/></g></g></svg>