<svg xmlns:dc="http://purl.org/dc/elements/1.1/" xmlns:cc="http://creativecommons.org/ns#" xmlns:rdf="http://www.w3.org/1999/02/22-rdf-syntax-ns#" xmlns:svg="http://www.w3.org/2000/svg" xmlns="http://www.w3.org/2000/svg" xmlns:sodipodi="http://sodipodi.sourceforge.net/DTD/sodipodi-0.dtd" xmlns:inkscape="http://www.inkscape.org/namespaces/inkscape" version="1.1" inkscape:version="0.48.3.1 r9886" width="67.63485948588846" height="105.41493774455836" sodipodi:docname="logo-eksmo.png"><rect id="backgroundrect" width="100%" height="100%" x="0" y="0" fill="none" stroke="none"/>
  <title id="title3795">Eksmo Logo</title>
  <metadata id="metadata8">
    <rdf:RDF>
      <cc:Work rdf:about="">
        <dc:format>image/svg+xml</dc:format>
        <dc:type rdf:resource="http://purl.org/dc/dcmitype/StillImage"/>
        <dc:title>Eksmo Logo</dc:title>
      </cc:Work>
    </rdf:RDF>
  </metadata>
  <defs id="defs6"/>
  <sodipodi:namedview pagecolor="#ffffff" bordercolor="#666666" borderopacity="1" objecttolerance="10" gridtolerance="10" guidetolerance="10" inkscape:pageopacity="0" inkscape:pageshadow="2" inkscape:window-width="1920" inkscape:window-height="1024" id="namedview4" showgrid="false" borderlayer="true" fit-margin-top="0" fit-margin-left="0" fit-margin-right="0" fit-margin-bottom="0" inkscape:zoom="2.9849802" inkscape:cx="99.131535" inkscape:cy="50.05947" inkscape:window-x="-4" inkscape:window-y="-4" inkscape:window-maximized="1" inkscape:current-layer="svg2"/>
  
  
<g class="currentLayer" style=""><title>Layer 1</title><g id="g3778">
    <path sodipodi:nodetypes="cssssssc" inkscape:connector-curvature="0" id="path2987" d="M20.711313240923502,2.3240511972053004 C36.070802353811,8.13758313708565 67.553654751668,23.982711646611 67.508512776125,47.8172213198265 C67.4784191976625,63.70564674428551 52.7255340903175,72.9736542671155 29.143947679323,67.02038447048751 c-3.7269763392085,-0.9408908712105 -6.466829709872,-3.7057270035205003 -6.0102755558370005,-7.1075758582885 c0.3261758021515,-2.43038205032 2.5346382113885,-5.815843705532 9.187013724710502,-3.97005849212 c11.809654885049001,3.2767378170275 21.390461976170002,0.07477463722050003 21.2823684148915,-10.748163529194 C53.43466849873351,28.334825133717004 32.4233352319145,17.851830246632 22.4857656864095,13.046198224875 C16.955209104702,10.371718932817 19.290648728709,5.49942237264645 20.711313240923502,2.3240511972053004 z" style="fill:#d50759;fill-opacity:1;stroke:none" stroke-width="0"/>
    <path style="fill:#d50759;fill-opacity:1;stroke:none" d="M47.14694354821601,103.11748766577351 C31.785577539304,97.30892001404752 0.29760467753549946,81.47396843994501 0.33504076757300183,57.6394459039355 c0.024958107958000002,-15.8884350715545 14.7748472562005,-25.161211475260004 38.358356654898,-19.215562884077002 c3.7272807586664998,0.9396839123735 6.468025949714001,3.7036346556965003 6.012573708365,7.105630360696001 c-0.32539117171750004,2.430487096471 -2.532759171565,5.81666263675 -9.1857317329085,3.9730287256345 c-11.8107128498555,-3.2729207829080003 -21.390484486059503,-0.06785981354600001 -21.278892244813,10.7550440520845 c0.1738353014125,16.859707862193 21.188557914450502,27.3359036907495 31.127679570431503,32.138324301604506 c5.5314226765035,2.6726924355915003 3.1975576728620005,7.545739432602001 1.7779168246700001,10.721577205895501 z" id="path3757" inkscape:connector-curvature="0" sodipodi:nodetypes="cssssssc" stroke-width="0"/>
  </g><g style="font-size:18px;font-style:normal;font-variant:normal;font-weight:normal;font-stretch:normal;line-height:125%;letter-spacing:0px;word-spacing:0px;fill:#161616;fill-opacity:1;stroke:none;font-family:a_ConceptoTitulRough;-inkscape-font-specification:a_ConceptoTitulRough" id="flowRoot3759">
    <path d="m75.2174794510076,54.47215651920001 l0,4.913173743959999 c1.4600823731898902,0.823023516 2.84303595053969,1.4177905661199999 4.148865374580771,1.78434725812 c1.30581529459778,0.366556692 2.73748335731137,0.546376956 4.29500802327538,0.539460792 c2.7713086390240003,-0.035249382520000004 5.080741884136363,-0.60657063668 6.92830631562068,-1.71396376248 c1.8475284619586603,-1.1073931257999998 3.2331882313987905,-2.53936182812 4.15698354715338,-4.29595221472 c0.9237507070836001,-1.7565673327199998 1.38563756602923,-3.6262600546 1.38566178793203,-5.60910121952 c-0.0068406690491000025,-2.04630849656 -0.5128307686129701,-3.9512506009599995 -1.5179733264294601,-5.7148263132 c-1.00518696463829,-1.76352960448 -2.4686297231433,-3.1914177700399997 -4.39033332174478,-4.283664496679999 c-1.9217390635041633,-1.09220061888 -4.260841757726083,-1.65450780596 -7.017314945538221,-1.6868985073599998 c-1.47092127099451,0.00002305388 -2.86470042410239,0.16601098988000001 -4.18134169815663,0.497963808 c-1.3166541924024002,0.33197587199999995 -2.49933663671962,0.82993968 -3.5480503606895106,1.49386837012 l0,5.045964092759999 c1.16644145664063,-0.70680890692 2.3572428809272203,-1.2684014237199999 3.57240830984357,-1.6847544965199999 c1.21515190502062,-0.41633001892 2.47090617830812,-0.62934787012 3.7672664531479203,-0.6390535536 c1.4357175611633701,0.0082993968 2.7050036224841993,0.27390314827999995 3.807862079651854,0.7967420928 c1.102830056986622,0.5228619983999999 2.0440982056545343,1.21198857936 2.687425242629426,2.19101770132 c0.36081612513207,0.54909731384 0.6488095031943201,1.17369608468 0.86412930073816,1.8245532248399998 l-10.12112713120975,0 l0,4.08452508124 l10.10138506933261,0 c-0.25847555806422,1.4565441383999997 -0.92694840195158,2.64333482692 -2.0054199647913293,3.56039511944 c-1.0785028413902316,0.9170833463999999 -2.5751237813636183,1.390148964 -4.489867357489952,1.4191968527999999 c-0.10285346585963999,-0.0027664656000000003 -0.22193358810338001,-0.013832328000000001 -0.35724077042960006,-0.0331975872 c-0.13532878018955005,-0.019365259200000002 -0.25440910428248,-0.0304311216 -0.35724077042960006,-0.0331975872 c-1.3207174165971,-0.006916164000000001 -2.56023393179505,-0.22546694639999998 -3.7185523714825104,-0.6556523472 c-1.1583321654323802,-0.4301854008 -2.4952772476595304,-1.03048538212 -4.01083948551444,-1.8009460517199998 z" style="font-size:144px;font-weight:bold;fill:#161616;fill-opacity:1;font-family:AZGillSansC;-inkscape-font-specification:AZGillSansC Bold" id="path3768" inkscape:connector-curvature="0" sodipodi:nodetypes="ccscscccccccccccsccccscccsc" stroke-width="0"/>
    <path d="m107.39858445704931,47.791695388319994 l-2.01702203419842,0 l0,-9.054987717 l-5.21783103148174,0 l0,22.640454769959998 l5.21783103148174,0 l0,-9.35346630136 l2.06267830248452,0 c1.6113741947214002,0 2.7235834165404,1.3488133571599998 3.4648947517343998,3.0543163456799998 c0.7412830763074001,1.70550298852 1.6757862897423002,3.80522732504 2.8035056033209003,6.299149955679999 l6.1167389476569,0 c-1.43191815386,-3.07626363944 -1.9607711056276003,-4.235504941359999 -2.8911424661432004,-6.31588707256 c-1.1675724176522,-2.72406951468 -2.1763601699909,-3.98447124204 -4.0440424661743,-5.12374788388 c0.6168874574942,-0.9595024856 1.4444146372129,-1.7645670290799997 1.9143074405815002,-2.9035209166 c0.8345131801846001,-2.0227474312 1.4108309689807002,-4.25795942048 3.8771273154876003,-4.28845970372 l0.298393657577,-4.0088391932 c-2.6509439485351,-0.49552009671999997 -4.542151767813,0.020517953200000005 -5.8310214192119005,1.403404945 c-2.5130930627165,2.69635875092 -3.1651567785520003,7.651582771999999 -5.7544176331150005,7.651582771999999 z" style="font-size:144px;font-weight:bold;fill:#161616;fill-opacity:1;font-family:AZGillSansC;-inkscape-font-specification:AZGillSansC Bold" id="path3770" inkscape:connector-curvature="0" sodipodi:nodetypes="sccccccscccccsccss" stroke-width="0"/>
    <path d="m142.9673930475856,54.47215651920001 c-1.5040106105604,0.7704606695999999 -2.8382559598713004,1.3707606509199999 -4.0027461403922,1.8009460517199998 c-1.1645224763913002,0.4301854008 -2.4198205705094002,0.6487361831999999 -3.7658922638624004,0.6556523472 c-2.2829748936570002,-0.034580820000000005 -4.1277594177268,-0.6791673048 -5.534367701652701,-1.93373640052 c-1.4066284688449,-1.25456909572 -2.1303324991952004,-2.91165893624 -2.1711141095428,-4.97129257544 c0.03815353389380001,-2.0595875314399996 0.7671197726274,-3.71667737196 2.1869027531846004,-4.97126952156 c1.419766832622,-1.2545460418399998 3.3013969078344,-1.8991325266399999 5.6448962811129,-1.93373640052 c1.3223907463822,0.009682629600000001 2.5934774841421,0.22272353468 3.8132662687554006,0.6390535536 c1.2197524517591,0.41637612668 2.4118899158343,0.9779455896 3.5764144107175007,1.6847544965199999 l0,-5.045964092759999 c-1.0500497637585,-0.66392869012 -2.2342929060128003,-1.16189249812 -3.5527314452548,-1.49386837012 c-1.3184748720962,-0.33195281812000005 -2.7237751732709,-0.49794075411999994 -4.215906958999801,-0.497963808 c-2.7646112828998,0.0323907014 -5.1093156958426,0.59469788848 -7.0341172758122,1.6868985073599998 c-1.9248157094129,1.09224672664 -3.3899622769307007,2.5201348921999998 -4.3954457580291,4.283664496679999 c-1.0054895365741001,1.76357571224 -1.5115456408231,3.66851781664 -1.5181703312389,5.7148263132 c-0.0000020184919,1.9828411649199997 0.4631671883578001,3.8525338867999994 1.3895136760248001,5.60910121952 c0.9263384136994002,1.7565903866 2.3158480527404,3.18855908892 4.1685369910906,4.29595221472 c1.8526768273988004,1.1073931257999998 4.168528917123001,1.67871437996 6.9475663616321,1.71396376248 c1.5763432677969,0.006916164000000001 3.0184871016223003,-0.1729041 4.32643553846,-0.539460792 c1.3079141224754,-0.366556692 2.6868973262579003,-0.9613237421199999 4.136959703807,-1.78434725812 z" style="font-size:144px;font-weight:bold;fill:#161616;fill-opacity:1;font-family:AZGillSansC;-inkscape-font-specification:AZGillSansC Bold" id="path3772" inkscape:connector-curvature="0" stroke-width="0"/>
    <path d="m159.0151040692749,47.102384376319975 l-6.868489922957701,-8.365676705 l-4.6206166034417,0 l0,22.640454769959998 l5.3074670086818,0 l0,-14.14198771616 l5.7445532631997,7.10419144528 l0.8117284436174002,0 l5.744555281691601,-7.10419144528 l0,14.14198771616 l5.3074670086818,0 l0,-22.640454769959998 l-4.6206186219336,0 z" style="font-size:144px;font-weight:bold;fill:#161616;fill-opacity:1;font-family:AZGillSansC;-inkscape-font-specification:AZGillSansC Bold" id="path3774" inkscape:connector-curvature="0" stroke-width="0"/>
    <path d="m199.26073618870032,50.023725942159984 c-0.0010092459500000003,-1.8573819499599997 -0.4614999140484001,-3.66805673904 -1.3809229744984,-5.4320243672399995 c-0.9194694857637,-1.76394457432 -2.2910407872894,-3.22544529692 -4.114721978544701,-4.3844791139199994 c-1.8237215610933,-1.15901076312 -4.0925427895475,-1.75984098368 -6.806465703854501,-1.8024906616799998 c-2.6940932498814005,0.042649678 -4.9535648238548005,0.64347989856 -6.778428851363501,1.8024906616799998 c-1.8248781569520003,1.1590338169999999 -3.2011242857181004,2.6205345396 -4.1287424232821,4.3844791139199994 c-0.9276262115316002,1.7639676282 -1.3926060056156,3.5746424172799998 -1.3949414007439,5.4320243672399995 c0.005853626510000001,1.96276123544 0.4848377173962,3.82835036668 1.4369966794804,5.59681350148 c0.9521569435923001,1.7684631348 2.3424194801120004,3.2160162599999995 4.1708037574943,4.34268242948 c1.8283661109552,1.1266431156 4.059800832437601,1.70861526232 6.694312238414801,1.7459164401599998 c2.5947572080067,-0.03605626832000001 4.807500694495101,-0.6131179386 6.638232477957101,-1.7311619569599999 c1.830691413624,-1.11804401836 3.2303015861326005,-2.5606866671199997 4.1988406099853,-4.32792794628 c0.9684885615552,-1.7672412791599998 1.4568323993817,-3.64267441716 1.4650375689552,-5.62632246788 zm-5.4886347306744,0 c-0.0276230616515,2.1177294168 -0.6506124201594001,3.7914180509200004 -1.8689741309994,5.02108895624 c-1.2184000621861002,1.22967090532 -2.8665673272607,1.8576585965199999 -4.9445017952238,1.88394001972 c-2.0779647453416,-0.026281423200000004 -3.7261320104162006,-0.6542691144 -4.9445038137157,-1.88394001972 c-1.2183899697266,-1.22967090532 -1.8413813467264002,-2.90335953944 -1.8689741309994,-5.02108895624 c0.027594802764900006,-2.0886354202399997 0.6505861797647,-3.7540246575599996 1.8689741309994,-4.99616771196 c1.2183718032995001,-1.24209694664 2.8665390683741,-1.87838403464 4.9445038137157,-1.9088382101199999 c2.0779344679631,0.030454175479999998 3.7261017330377,0.66674126348 4.9445017952238,1.9088382101199999 c1.21836171084,1.2421430543999998 1.8413510693479003,2.90753229172 1.8689741309994,4.99616771196 z" style="font-size:144px;font-weight:bold;fill:#161616;fill-opacity:1;font-family:AZGillSansC;-inkscape-font-specification:AZGillSansC Bold" id="path3776" inkscape:connector-curvature="0" stroke-width="0"/>
  </g></g></svg>