<?xml version="1.0" encoding="utf-8"?>
<!-- Generator: Adobe Illustrator 20.1.0, SVG Export Plug-In . SVG Version: 6.00 Build 0)  -->
<svg version="1.1" id="Ebene_1" xmlns="http://www.w3.org/2000/svg" xmlns:xlink="http://www.w3.org/1999/xlink" x="0px" y="0px"
	 viewBox="0 0 180 90" style="enable-background:new 0 0 180 90;" xml:space="preserve">
<style type="text/css">
	.st0{fill:#404040;}
	.st1{fill:#3B97D3;}
</style>
<g>
	<g>
		<path class="st0" d="M34.9,41.2c0,7.2-4.2,11.4-11.2,11.4h-2.9v10.9H14V29.7h9.8C30.8,29.7,34.9,34,34.9,41.2z M27.9,41.2
			c0-3.3-1.4-5-4.2-5h-2.8v9.9h2.8C26.4,46.2,27.9,44.5,27.9,41.2z"/>
		<path class="st0" d="M52.3,57.9h-7.1L44,63.5h-7.1L45,29.7h7.3l8.1,33.8h-7.1L52.3,57.9z M50.9,51.4l-0.8-3.9
			c-0.4-2.4-1-6.5-1.4-9.3h-0.2c-0.3,2.8-0.9,6.9-1.4,9.3l-0.8,3.9H50.9z"/>
		<path class="st0" d="M69.3,53.5l-8-23.8h7.1l2.8,9.4c0.3,1.1,1.1,3.8,1.4,5.4h0.2c0.4-1.6,1.2-4.3,1.5-5.6l2.7-9.2h7.1l-8,23.8v10
			h-6.9V53.5z"/>
		<path class="st1" d="M107.8,57v6.5H89.9V29.7h17.4v6.5H96.8v7h9.6v6.3h-9.6V57H107.8z"/>
		<path class="st1" d="M133.3,57v6.5h-17.9V29.7h17.4v6.5h-10.6v7h9.6v6.3h-9.6V57H133.3z"/>
		<path class="st1" d="M150,52.2h-2.4v11.3h-6.9V29.7h9.8c6.7,0,10.7,4.2,10.7,11.3c0,4.6-1.7,8-4.7,9.8l6.4,12.8h-7.5L150,52.2z
			 M147.6,45.7h2.8c2.4,0,3.7-1.6,3.7-4.7c0-3.1-1.3-4.7-3.7-4.7h-2.8V45.7z"/>
	</g>
	<path d="M167.1,22.1c-0.8-2.7-3.4-4.4-6.2-3.9c-2.8,0.5-4.8,3.2-4.4,6c0.3,2.2,1.6,3.7,3.6,4.4c0.2,0.1,0.5,0.1,0.7,0.3h1.9
		c0.5-0.2,0.9-0.2,1.3-0.5c1.6-0.7,2.6-2,3.1-3.6c0-0.2,0-0.4,0.1-0.6v-1.4C167.1,22.6,167.2,22.3,167.1,22.1z M161.9,28
		c-2.2,0-4.4-1.8-4.5-4.5c0-2.5,2-4.5,4.5-4.4c2.6,0,4.5,2.2,4.4,4.4C166.4,25.8,164.3,28,161.9,28z"/>
	<path d="M162.9,23.8c0.1-0.1,0.3-0.1,0.4-0.1c1.1-0.4,1.4-1.8,0.6-2.6c-0.3-0.3-0.7-0.4-1.1-0.4c-0.9,0-1.8,0.1-2.6,0.1
		c-0.6,0-0.6,0-0.5,0.6c0,0,0,0.1,0,0.1c0,0.9,0.1,1.7,0.1,2.6c0,0.7,0,1.4,0.1,2c0,0.5,0,0.5,0.5,0.5c0.3,0,0.3,0,0.3-0.3
		c0-0.6-0.1-1.1-0.1-1.7c0-0.2-0.1-0.4,0-0.5c0.1-0.1,0.3-0.1,0.5-0.1c0.7-0.1,1.2,0.1,1.6,0.6c0.4,0.5,0.7,1,1.1,1.5
		c0.1,0.1,0.1,0.2,0.2,0.2c0.3,0,0.6,0.1,0.9-0.1C164.3,25.4,163.8,24.5,162.9,23.8z M162.4,23.2c-0.5,0-1,0-1.5,0.1h-0.1
		c-0.3,0-0.3,0-0.3-0.3c0-0.4,0-0.8-0.1-1.2c-0.1-0.3,0-0.4,0.4-0.4c0.5,0,0.9,0,1.3-0.1c0.2,0,0.5,0,0.7,0.1
		c0.4,0.1,0.6,0.4,0.7,0.8c0,0.4-0.1,0.7-0.5,0.8C162.8,23.1,162.6,23.2,162.4,23.2z"/>
	<path d="M162.4,23.2"/>
</g>
</svg>
