<?xml version="1.0" encoding="UTF-8"?>
<svg width="38px" height="39px" viewBox="0 0 38 39" version="1.1" xmlns="http://www.w3.org/2000/svg">
    <g id="Symbols" stroke="none" stroke-width="1" fill="none" fill-rule="evenodd">
        <g id="Qiwi" fill="#F68E1F">
            <path d="M31.312,26.775 C31.008,25.275 30.248,24.15 29.336,23.325 C29.032,22.95 28.576,22.725 28.12,22.425 C27.892,22.275 27.74,22.2 27.436,22.125 C26.904,21.9 26.296,21.675 25.46,21.825 C25.84,21.6 26.524,21.6 27.132,21.6 C27.664,21.675 28.12,21.825 28.576,21.9 C28.956,22.125 29.336,22.275 29.716,22.5 C30.628,19.8 30.248,16.125 29.26,13.725 C28.272,11.25 26.828,9.15 24.928,7.5 C23.104,5.85 20.9,4.575 17.936,3.975 C16.492,3.675 14.668,3.75 13.3,4.05 C11.932,4.425 10.792,5.025 9.728,5.775 C8.816,6.6 7.904,7.425 7.296,8.55 C7.068,8.775 6.992,9.15 6.764,9.375 C6.612,9.675 6.46,9.975 6.384,10.275 C6.156,10.95 5.928,11.55 5.776,12.3 C5.472,13.65 5.396,15.525 5.624,16.95 C5.776,18.525 6.232,19.8 6.764,21 C7.068,21.6 7.372,22.2 7.676,22.725 C7.98,23.25 8.36,23.775 8.74,24.225 C9.576,25.125 10.488,25.95 11.552,26.625 C13.68,27.975 16.112,29.025 19.532,29.25 C19.608,29.1 19.456,28.875 19.38,28.65 C19.304,28.425 19.304,28.2 19.228,28.05 C19.152,27.6 19.152,27.075 19.228,26.625 C19.38,26.625 19.38,26.85 19.456,26.925 C19.532,27 19.532,27.15 19.684,27.15 C19.76,27.375 19.988,27.525 20.064,27.75 C20.368,28.05 20.596,28.425 21.052,28.725 C21.356,29.025 21.812,29.25 22.192,29.475 C22.572,29.7 22.952,29.925 23.484,30.075 C24.32,30.525 25.46,30.675 26.524,30.825 C27.664,30.975 28.728,31.2 29.716,31.425 C30.628,31.725 31.616,32.025 32.376,32.55 C32.756,32.775 33.212,33 33.516,33.3 C33.668,33.45 33.896,33.525 34.048,33.675 C34.276,33.75 34.352,33.975 34.58,34.05 C35.264,34.65 35.872,35.25 36.404,36 C36.632,36.375 36.936,36.75 37.088,37.2 C37.24,37.35 37.316,37.65 37.392,37.8 C37.392,38.025 37.62,38.325 37.468,38.475 C37.164,38.55 37.24,38.175 37.088,38.1 C37.012,37.95 36.86,37.8 36.784,37.575 C36.328,37.05 35.872,36.525 35.34,36.075 C34.808,35.625 34.276,35.175 33.668,34.8 C32.528,33.975 31.16,33.375 29.564,32.925 C28.044,32.475 26.296,32.325 24.244,32.4 C23.332,32.55 22.496,32.7 21.812,32.925 C21.052,33.15 20.14,33.225 19.228,33.3 C15.808,33.525 12.008,32.7 9.424,31.5 C8.056,30.9 6.84,30.15 5.776,29.25 C5.168,28.8 4.712,28.35 4.256,27.825 C3.8,27.3 3.344,26.775 2.964,26.1 C2.508,25.575 2.28,24.825 1.9,24.225 C1.672,23.475 1.292,22.875 1.14,22.05 C0.912,21.3 0.76,20.475 0.608,19.575 C0.608,19.35 0.456,18.825 0.456,18.45 C0.456,18.45 0.532,18.375 0.532,18.3 C0.532,17.925 0.456,17.4 0.532,17.1 C0.532,16.275 0.684,15.3 0.836,14.475 C0.988,13.65 1.216,12.9 1.444,12.15 C1.672,11.4 2.052,10.725 2.356,10.05 C2.584,9.75 2.736,9.375 2.888,9.075 C3.04,9 3.268,8.775 3.42,8.4 C3.572,8.325 3.572,8.1 3.724,8.025 C3.8,7.875 3.952,7.8 4.028,7.575 C4.18,7.5 4.256,7.35 4.332,7.125 C4.484,6.975 4.56,6.9 4.636,6.675 C5.168,6.225 5.548,5.625 6.08,5.175 C6.612,4.725 7.144,4.275 7.676,3.825 C7.98,3.675 8.284,3.375 8.588,3.225 C8.816,3 9.196,2.85 9.5,2.625 C10.184,2.325 10.792,1.875 11.552,1.65 C12.236,1.35 12.996,1.125 13.756,0.9 C15.352,0.525 16.948,0.225 19,0.3 C19.076,0.3 19.076,0.225 19.152,0.3 C22.952,0.375 25.688,1.575 28.044,3.075 C30.4,4.575 32.148,6.675 33.516,9.225 C34.808,11.775 35.492,15.225 34.884,18.825 C34.58,20.475 34.124,21.9 33.516,23.25 C33.136,23.85 32.832,24.525 32.452,25.125 C32.3,25.425 32.072,25.725 31.844,26.025 C31.768,26.175 31.692,26.325 31.54,26.4 C31.464,26.475 31.464,26.55 31.388,26.625 C31.388,26.7 31.388,26.7 31.312,26.775 C31.388,26.775 31.312,26.85 31.312,26.775 Z" id="Shape"></path>
            <path d="M30.324,27.825 C29.868,27.6 29.716,27.075 29.564,26.55 C29.488,26.4 29.488,26.1 29.564,25.95 L29.64,25.875 C29.792,25.8 29.868,25.875 30.02,25.95 C30.248,26.25 30.4,26.55 30.552,27 C30.552,27.45 30.552,27.75 30.324,27.825 Z" id="Shape"></path>
            <path d="M26.6,27.15 C26.676,27.075 26.676,27.15 26.6,27.15 C27.36,27.225 27.74,27.75 27.74,28.5 C27.664,28.95 27.436,29.175 27.056,29.25 C26.068,29.25 25.46,28.35 25.84,27.45 C26.068,27.3 26.22,27.075 26.6,27.15 Z" id="Shape"></path>
        </g>
    </g>
</svg>
