<svg xmlns="http://www.w3.org/2000/svg" xmlns:xlink="http://www.w3.org/1999/xlink" data-name="Layer 1" width="197.44447128860952" height="239.88888933040477"><rect id="backgroundrect" width="100%" height="100%" x="0" y="0" fill="none" stroke="none" style="" class="selected"/><defs><linearGradient id="linear-gradient" x1="83.68199920654297" y1="72.48829650878906" x2="231.177001953125" y2="219.9832000732422" gradientUnits="userSpaceOnUse"><stop offset="0" stop-color="#00aae4"/><stop offset="1" stop-color="#006097"/></linearGradient></defs><title>Ripple_logo_RGB</title><g class="currentLayer" style=""><title>Layer 1</title><path d="M318.3097001495361,94.85020048217774 c-2.307,-0.7692000000000001 -7.1772,-1.2822 -12.0481,-1.2822 c-14.6125,0 -30.25,11.8368 -30.25,26.4487 v69.6831 H242.6866001495361 V65.36970048217773 h32.0437 v12.561 c7.434,-9.2286 21.02,-15.1249 36.1453,-15.1249 a67.94,67.94 0 0 1 11.28,1.0254 z" style="fill:#434c54" id="svg_1"/><path d="M355.99150014953614,4.821777359609314e-7 c12.0486,0 21.79,9.2286 21.79,21.2773 s-9.741,21.2766 -21.79,21.2766 s-21.79,-9.2279 -21.79,-21.2766 S343.94320014953615,4.821777359609314e-7 355.99150014953614,4.821777359609314e-7 zm16.6626,189.7 H339.3288001495361 V65.36970048217773 h33.3253 v124.33 z" style="fill:#434c54" id="svg_2"/><path d="M471.09630014953615,62.79970048217774 a56.8984,56.8984 0 0 0 -36.4006,12.573 V65.36860048217774 H402.64480014953614 V251.21780048217772 H435.9732001495361 V180.98570048217775 a52.4285,52.4285 0 0 0 33.3287,11.2818 c18.4585,0 36.1422,-8.21 47.1657,-21.0275 c9.7457,-11.2817 15.6313,-26.654700000000002 15.6313,-43.5773 C532.0991001495362,91.00400048217773 504.9277001495361,62.79970048217774 471.09630014953615,62.79970048217774 zm-4.0506,99.2111 c-20.7013,0 -34.3073,-14.2857 -34.3073,-34.2394 s13.606,-34.2393 34.3073,-34.2393 c17.67,0 31.9966,15.3322 31.9966,34.2393 S484.7158001495361,162.01080048217773 467.0457001495361,162.01080048217773 z" style="fill:#434c54" id="svg_3"/><path d="M734.3638001495361,189.69980048217772 H701.0371001495362 V7.690200482177737 h33.3267 v182.01 z" style="fill:#434c54" id="svg_4"/><path d="M870.2295001495361,169.96030048217773 c-12.0486,14.3557 -31.7882,22.3027 -51.014,22.3027 c-37.1708,0 -65.1135,-25.6344 -65.1135,-64.6 c0,-34.6076 23.5849,-64.8574 60.4995,-64.8574 c34.3514,0 58.7049,28.9676 58.7049,63.5751 a54.7023,54.7023 0 0 1 -0.77,9.4855 H786.4026001495362 c1.7945,17.4312 15.8941,29.48 33.5828,29.48 c14.0981,0 25.3782,-7.947 31.2745,-14.3557 zM839.2112001495361,111.51290048217774 c-1.026,-11.0233 -11.0226,-21.79 -24.61,-21.79 c-13.8433,0 -25.1221,10.5109 -26.66,21.79 h51.27 z" style="fill:#434c54" id="svg_5"/><path d="M620.2946001495361,62.79970048217774 a56.8981,56.8981 0 0 0 -36.4,12.573 V65.36860048217774 H551.8432001495362 V251.21780048217772 h33.3286 V180.98570048217775 a52.4283,52.4283 0 0 0 33.3286,11.2818 c18.4586,0 36.1422,-8.21 47.1657,-21.0275 c9.745800000000001,-11.2817 15.6313,-26.654700000000002 15.6313,-43.5773 C681.2974001495361,91.00400048217773 654.1261001495361,62.79970048217774 620.2946001495361,62.79970048217774 zm-4.0506,99.2111 c-20.7012,0 -34.3072,-14.2857 -34.3072,-34.2394 S595.5432001495361,93.53190048217773 616.2440001495361,93.53190048217773 c17.67,0 31.9966,15.3322 31.9966,34.2393 S633.9142001495361,162.01080048217773 616.2440001495361,162.01080048217773 z" style="fill:#434c54" id="svg_6"/><path d="M173.98510014953612,144.40300048217773 c-7.5243,-4.3445 -15.9976,-5.6037 -24.3906,-5.8968 c-7.0417,-0.24590000000000004 -17.5476,-4.7583 -17.5476,-17.5681 c0,-9.5441 7.7369,-17.2252 17.5512,-17.5679 c8.3923,-0.2931 16.8648,-1.5539 24.387,-5.8969000000000005 A44.4477,44.4477 0 1 0 107.31370014953615,58.981900482177736 c0,8.6117 3.0629,16.5366 6.9711,23.8868 c3.287,6.182 4.95,17.6559 -6.3235,24.1644 c-8.3862,4.8418 -18.8523,1.776 -24.08,-6.5905000000000005 c-4.4158,-7.0666 -9.7464,-13.6878 -17.2095,-17.9974 a44.4475,44.4475 0 1 0 0,76.9852 c7.461,-4.308 12.7921,-10.924900000000001 17.2051,-17.9872 c3.6238,-5.7993 12.6743,-13.1915 24.084,-6.5992 c8.3734,4.838 10.962,15.4379 6.32,24.1688 c-3.9076,7.3491 -6.9666,15.2723 -6.9666,23.8825 A44.4471,44.4471 0 1 0 173.98510014953612,144.40300048217773 z" style="fill:url(#linear-gradient)" id="svg_7"/></g></svg>