<svg width="44" height="42" xmlns="http://www.w3.org/2000/svg">
 <defs>
  <radialGradient gradientUnits="userSpaceOnUse" r="23.4124" cy="20.7007" cx="23.7002" id="SVGID_1_">
   <stop stop-color="#52A347" offset="0"/>
   <stop stop-color="#83B03E" offset="0.502"/>
   <stop stop-color="#2EA64C" offset="0.7059"/>
   <stop stop-color="#264122" offset="0.9294"/>
   <stop stop-color="#264122" offset="0.9333"/>
  </radialGradient>
  <radialGradient gradientUnits="userSpaceOnUse" r="23.4128" cy="20.7002" cx="23.7002" id="SVGID_2_">
   <stop stop-color="#52A347" offset="0"/>
   <stop stop-color="#83B03E" offset="0.502"/>
   <stop stop-color="#2B9940" offset="0.7059"/>
   <stop stop-color="#264122" offset="0.9294"/>
   <stop stop-color="#264122" offset="0.9333"/>
  </radialGradient>
 </defs>
 <g>
  <title>background</title>
  <rect fill="none" id="canvas_background" height="44" width="46" y="-1" x="-1"/>
 </g>
 <g>
  <title>Layer 1</title>
  <path id="svg_1" d="m192,7.2l4.65,0c-0.834,0.466 -1.95,1.35 -3.351,2.65l-4.649,4.75l2.55,3.65c2.667,3.8 5,6.7 7,8.7l-6.65,0c-0.833,-1.934 -1.917,-3.9 -3.25,-5.9l-3,-4.5l2.601,-3.3c2.332,-3.033 3.699,-5.05 4.099,-6.05zm-7.05,2.2l0,15.3l0.2,1.15c0.133,0.2 0.434,0.367 0.899,0.5l0,0.6l-6.45,0l0,-0.6l0.9,-0.5c0.133,-0.2 0.2,-0.583 0.2,-1.15l0,-15.3l-0.2,-1.1c-0.133,-0.233 -0.434,-0.383 -0.9,-0.45l0,-0.65l6.45,0l0,0.65c-0.466,0.066 -0.767,0.217 -0.899,0.45l-0.2,1.1zm-9.6,0l0,15.3l0.2,1.15l0.9,0.5l0,0.6l-6.5,0l0,-0.6c0.466,-0.133 0.8,-0.3 1,-0.5l0.149,-1.15l0,-7.95l-7.6,0l0,7.95l0.2,1.15c0.134,0.2 0.433,0.367 0.899,0.5l0,0.6l-6.55,0l0,-0.6c0.534,-0.133 0.866,-0.3 1,-0.5l0.2,-1.15l0,-15.3l-0.2,-1.1c-0.134,-0.233 -0.466,-0.383 -1,-0.45l0,-0.65l6.55,0l0,0.65c-0.467,0.066 -0.766,0.217 -0.899,0.45l-0.2,1.1l0,6.05l7.6,0l0,-6.05l-0.149,-1.1c-0.2,-0.233 -0.534,-0.383 -1,-0.45l0,-0.65l6.5,0l0,0.65c-0.467,0.066 -0.767,0.217 -0.9,0.45l-0.2,1.1zm-2.35,30.7l3.15,0l-1.3,6.6l-0.899,0l0.6,-3.05l-1.551,0l-2.15,3.05l-1,0l2.2,-3.101c-0.899,-0.266 -1.35,-0.833 -1.35,-1.699c0,-0.467 0.2,-0.867 0.6,-1.2c0.4,-0.4 0.967,-0.6 1.7,-0.6zm-0.2,2.8l1.9,0l0.399,-2.051l-2.099,0c-0.467,0 -0.834,0.117 -1.1,0.351c-0.2,0.2 -0.301,0.45 -0.301,0.75c0.001,0.634 0.401,0.95 1.201,0.95zm-7.7,-1.1l-0.649,3.3c0.5,0.634 1.066,0.95 1.7,0.95c0.633,0 1.184,-0.316 1.649,-0.95c0.467,-0.666 0.7,-1.482 0.7,-2.449c0,-0.634 -0.133,-1.117 -0.4,-1.45c-0.266,-0.333 -0.649,-0.5 -1.149,-0.5c-0.734,-0.001 -1.351,0.365 -1.851,1.099zm0.25,-1.7l-0.15,0.8l0.85,-0.7l1.101,-0.25c0.699,0 1.25,0.233 1.649,0.7c0.4,0.467 0.601,1.149 0.601,2.05c0,1.2 -0.316,2.183 -0.95,2.95c-0.601,0.766 -1.351,1.149 -2.25,1.149l-1.101,-0.2l-0.8,-0.6l-0.649,3.35l-0.9,0l1.8,-9.25l0.799,0l0,0.001zm15.8,0l0.75,5.801l0.649,0l-0.399,2.05l-0.7,0l0.149,-1.25l-4.449,0l-0.351,1.25l-0.649,0l0.35,-2.05l0.6,0l2.75,-5.801l1.3,0zm-0.85,0.85l-2.3,4.95l2.95,0l-0.45,-4.95l-0.2,0zm3.1,3c0,-1.134 0.333,-2.083 1,-2.851c0.6,-0.766 1.333,-1.149 2.199,-1.149c0.734,0 1.301,0.267 1.7,0.8c0.434,0.5 0.65,1.2 0.65,2.1c0,1.066 -0.317,2 -0.95,2.801c-0.633,0.766 -1.367,1.149 -2.2,1.149c-0.733,0 -1.316,-0.25 -1.75,-0.75c-0.432,-0.5 -0.649,-1.2 -0.649,-2.1zm14.8,-10.1l-144.7,0l0,-1.95l144.7,0l0,1.95zm-5.6,6.25l0.75,5.7l2.75,-5.7l1.45,0l-1.3,6.601l-0.85,0l1.1,-5.8l-2.9,5.8l-0.85,0l-0.85,-5.8l-1.15,5.8l-0.85,0l1.3,-6.601l1.4,0zm-4.95,1.15c-0.301,-0.367 -0.684,-0.55 -1.15,-0.55c-0.566,0 -1.066,0.316 -1.5,0.95c-0.467,0.666 -0.7,1.482 -0.7,2.449c0,0.601 0.15,1.084 0.45,1.45c0.267,0.333 0.617,0.5 1.05,0.5c0.601,0 1.134,-0.316 1.601,-0.95c0.434,-0.666 0.649,-1.467 0.649,-2.399c0,-0.6 -0.134,-1.083 -0.4,-1.45zm-43.75,-33.4l0,-0.65l5.699,0c0.066,0.9 0.301,1.867 0.7,2.9l4.2,11.8c0.7,2.067 1.383,3.75 2.05,5.05l-5,0l-2.149,-7.1l-6.351,0l-1.35,4.7l-0.4,2.4l-3.6,0l6.399,-14.8c0.634,-1.566 0.95,-2.633 0.95,-3.2c0.002,-0.633 -0.382,-1 -1.148,-1.1zm2.35,2.65l-2.7,7.95l5.4,0l-2.7,-7.95zm-10.1,1l-1.101,0l-0.25,-0.85c-0.267,-0.967 -0.667,-1.6 -1.2,-1.9l-2.75,-0.35l-2.649,0c-0.601,0 -1,0.1 -1.2,0.3c-0.166,0.167 -0.25,0.466 -0.25,0.9l0,4.7l1.1,0c3.2,0 5.417,0.317 6.65,0.95c1.767,0.867 2.65,2.567 2.65,5.1c0,2.467 -0.7,4.233 -2.101,5.3c-1.233,0.867 -3.149,1.3 -5.75,1.3l-7.899,0l0,-0.6l0.949,-0.5l0.15,-1.15l0,-15.3l-0.15,-1.1c-0.133,-0.233 -0.449,-0.383 -0.949,-0.45l0,-0.65l14.75,0l0,4.3zm-9.4,4.05l0,8.45c0,0.667 0.117,1.1 0.35,1.3c0.268,0.267 0.734,0.4 1.4,0.4l0.6,0c1.268,0 2.2,-0.434 2.801,-1.3c0.533,-0.8 0.8,-2.083 0.8,-3.85c0,-1.733 -0.284,-2.966 -0.851,-3.7c-0.6,-0.867 -1.717,-1.3 -3.35,-1.3l-1.75,0zm1.25,22.4c0.4,0.399 0.6,0.95 0.6,1.649c0,0.601 -0.184,1.101 -0.55,1.5c-0.333,0.367 -0.866,0.65 -1.6,0.851c1.033,0.433 1.55,1.116 1.55,2.05c0,0.867 -0.3,1.533 -0.9,2c-0.566,0.467 -1.416,0.7 -2.55,0.7l-3.15,0l1.75,-9.351l2.949,0c0.835,0.001 1.467,0.201 1.901,0.601zm-4.05,0.25l-0.65,3.25l1.851,0c0.8,0 1.416,-0.167 1.85,-0.5c0.434,-0.366 0.65,-0.817 0.65,-1.351c0,-0.5 -0.134,-0.85 -0.4,-1.05c-0.3,-0.233 -0.75,-0.35 -1.35,-0.35l-1.951,0l0,0.001zm6.15,5.75c0,0.667 0.167,1.167 0.5,1.5c0.3,0.366 0.734,0.55 1.3,0.55l1.149,-0.35l0.65,-0.9l0.7,0.3l-1,1.25c-0.434,0.333 -0.967,0.5 -1.601,0.5c-0.767,0 -1.384,-0.267 -1.85,-0.8c-0.467,-0.533 -0.7,-1.25 -0.7,-2.15c0,-1.066 0.3,-1.982 0.9,-2.75c0.6,-0.766 1.35,-1.149 2.25,-1.149c0.633,0 1.133,0.167 1.5,0.5c0.366,0.3 0.666,0.767 0.899,1.399l-0.847,0.15c-0.233,-0.867 -0.75,-1.3 -1.55,-1.3c-0.601,0 -1.134,0.3 -1.601,0.899c-0.465,0.634 -0.699,1.418 -0.699,2.351zm-5.25,-1.7l-1.699,0l-0.65,3.6l2.2,0c0.733,0 1.3,-0.166 1.7,-0.5c0.399,-0.333 0.6,-0.783 0.6,-1.35c0,-0.434 -0.184,-0.834 -0.55,-1.2c-0.434,-0.366 -0.968,-0.55 -1.601,-0.55zm16.25,1.15l-4.649,0l-0.05,0.55c0,0.667 0.166,1.183 0.5,1.55c0.3,0.367 0.717,0.55 1.25,0.55c0.467,0 0.866,-0.149 1.199,-0.45l0.851,-1.1l0.75,0.4l-1.25,1.35c-0.467,0.367 -1.034,0.55 -1.7,0.55c-0.767,0 -1.367,-0.25 -1.8,-0.75c-0.434,-0.533 -0.65,-1.233 -0.65,-2.1c0,-1.167 0.3,-2.116 0.9,-2.851c0.634,-0.766 1.417,-1.149 2.35,-1.149c0.767,0 1.351,0.233 1.75,0.7c0.434,0.434 0.65,1.066 0.65,1.899l-0.101,0.851zm-1.15,-2.2c-0.3,-0.333 -0.684,-0.5 -1.15,-0.5c-0.6,0 -1.066,0.183 -1.399,0.55c-0.334,0.3 -0.601,0.767 -0.801,1.4l3.65,0l0.05,-0.4c0,-0.4 -0.116,-0.75 -0.35,-1.05zm2.15,5.5l1.3,-6.6l3.699,0l-0.149,0.75l-2.85,0l-1.15,5.85l-0.85,0zm7.45,-5.75l-2.3,4.95l2.95,0l-0.45,-4.95l-0.2,0zm0.85,-0.85l0.75,5.801l0.649,0l-0.399,2.05l-0.65,0l0.1,-1.25l-4.45,0l-0.351,1.25l-0.649,0l0.35,-2.05l0.6,0l2.75,-5.801l1.3,0zm2.4,4.85c0,-0.7 0.3,-1.233 0.9,-1.601c0.634,-0.399 1.517,-0.6 2.649,-0.6l0.9,0l0.051,-0.749c0,-0.434 -0.116,-0.75 -0.35,-0.95c-0.267,-0.233 -0.634,-0.35 -1.101,-0.35c-0.434,0 -0.916,0.25 -1.449,0.75l-0.551,-0.55c0.734,-0.634 1.45,-0.95 2.15,-0.95c0.666,0 1.2,0.183 1.6,0.55c0.4,0.367 0.601,0.834 0.601,1.4l-0.101,1l-0.449,2.2c-0.101,0.467 -0.15,1 -0.15,1.601l-0.85,0l-0.051,-0.75l-0.899,0.6l-1.05,0.25c-0.533,0 -0.967,-0.183 -1.301,-0.55c-0.366,-0.368 -0.549,-0.801 -0.549,-1.301zm3.65,-1.5c-1.833,0 -2.75,0.466 -2.75,1.399c0,0.334 0.1,0.617 0.3,0.851c0.233,0.233 0.517,0.35 0.85,0.35c0.5,0 1.134,-0.283 1.9,-0.85l0.35,-1.75l-0.65,0zm-36.8,-30.6c0,2.3 -0.7,3.95 -2.101,4.95c-1.2,0.867 -3.066,1.3 -5.6,1.3l-2,0l0,5.6l0.2,1.15c0.1,0.2 0.416,0.367 0.949,0.5l0,0.6l-6.5,0l0,-0.6l0.9,-0.5l0.2,-1.15l0,-15.3l-0.2,-1.1c-0.133,-0.233 -0.434,-0.383 -0.9,-0.45l0,-0.65l8.2,0c2.233,0 3.866,0.333 4.9,1c1.302,0.867 1.952,2.417 1.952,4.65zm-9.4,-4.25c-0.2,0.133 -0.3,0.433 -0.3,0.9l0,8.35l2,0c1.233,0 2.1,-0.467 2.6,-1.4c0.434,-0.833 0.65,-2.1 0.65,-3.8c0,-2.833 -1.184,-4.25 -3.55,-4.25l-0.5,0l-0.9,0.2zm-8.65,2.9l-1.05,0l-0.25,-0.85c-0.333,-0.967 -0.75,-1.6 -1.25,-1.9l-2.7,-0.35l-2.2,0l-0.8,0.2l-0.2,0.75l0,6.1l2.6,0c1.8,0 2.983,-0.2 3.55,-0.6l0,2.5c-0.566,-0.4 -1.75,-0.6 -3.55,-0.6l-2.6,0l0,7.4c0,0.6 0.2,1.017 0.6,1.25l2.5,0.3l0.55,0l2.7,-0.4c0.467,-0.3 0.834,-1.033 1.1,-2.2l0.2,-0.75l1.25,0l0,4.6l-14.25,0l0,-0.6c0.5,-0.133 0.817,-0.3 0.95,-0.5l0.2,-1.15l0,-15.3l-0.2,-1.1c-0.133,-0.233 -0.45,-0.383 -0.95,-0.45l0,-0.65l13.8,0l0,4.3zm-17.05,0l-1.05,0l-0.25,-0.85c-0.3,-0.967 -0.717,-1.6 -1.25,-1.9l-2.65,-0.35l-2.75,0c-0.567,0 -0.967,0.1 -1.2,0.3c-0.1,0.167 -0.15,0.466 -0.15,0.9l0,4.7l1.1,0c3.167,0 5.383,0.317 6.65,0.95c1.733,0.867 2.6,2.567 2.6,5.1c0,2.467 -0.7,4.233 -2.1,5.3c-1.2,0.867 -3.117,1.3 -5.75,1.3l-7.95,0l0,-0.6c0.534,-0.133 0.867,-0.3 1,-0.5l0.2,-1.15l0,-15.3l-0.2,-1.1c-0.133,-0.233 -0.466,-0.383 -1,-0.45l0,-0.65l14.75,0l0,4.3zm-19.9,-2.7c-0.6,-0.433 -1.533,-0.65 -2.8,-0.65c-2,0 -3.417,0.733 -4.25,2.2c-0.7,1.267 -1.05,3.333 -1.05,6.2s0.383,4.983 1.15,6.35c0.933,1.7 2.533,2.55 4.8,2.55c1.667,0 3.317,-0.4 4.95,-1.2l0.6,1.25c-1.9,1.166 -4.133,1.75 -6.7,1.75c-6.267,0 -9.4,-3.317 -9.4,-9.95c0,-6.966 3.25,-10.45 9.75,-10.45c2.5,0 4.417,0.3 5.75,0.9l0,4.1l-1.25,0l-0.35,-1.2c-0.267,-0.833 -0.667,-1.45 -1.2,-1.85zm10.6,6.75l0,8.45c0,0.667 0.1,1.1 0.3,1.3c0.267,0.267 0.75,0.4 1.45,0.4l0.55,0c2.4,0 3.6,-1.717 3.6,-5.15c0,-1.733 -0.283,-2.966 -0.85,-3.7c-0.633,-0.867 -1.767,-1.3 -3.4,-1.3l-1.65,0z" fill="#006236" clip-rule="evenodd" fill-rule="evenodd"/>
  <path id="svg_2" d="m34.75,4.05l1.75,1.6l-22.1,12.7l-10.7,-6.2l1,-2l9.7,5.55l20.35,-11.65zm-4.45,-2.55l2.35,1.2l-18.25,10.5l-8.5,-4.85l1.45,-1.75l7.05,4.05l15.9,-9.15zm7.75,5.8l1.3,1.75l-24.95,14.35l-12.05,-6.9l0.55,-2.2l11.5,6.6l23.65,-13.6z" fill="url(#SVGID_1_)" clip-rule="evenodd" fill-rule="evenodd"/>
  <path id="svg_3" d="m41.65,13.75c0.733,2.067 1.1,4.233 1.1,6.5s-0.367,4.467 -1.1,6.6l-0.5,1.351c-1.033,2.433 -2.483,4.6 -4.35,6.5c-1.9,1.866 -4.066,3.3 -6.5,4.3c-2.566,1.1 -5.216,1.65 -7.95,1.65c-2.767,0 -5.417,-0.551 -7.95,-1.65c-2.367,-1 -4.517,-2.434 -6.45,-4.3c-1.9,-1.9 -3.35,-4.067 -4.35,-6.5c-1.067,-2.568 -1.6,-5.218 -1.6,-7.951l0,-1.35l12.4,7.05l26.15,-15l1.1,2.8z" fill="url(#SVGID_2_)" clip-rule="evenodd" fill-rule="evenodd"/>
 </g>
</svg>