<?xml version="1.0" encoding="UTF-8"?>
<svg width="30px" height="39px" viewBox="0 0 30 39" version="1.1" xmlns="http://www.w3.org/2000/svg">
    <g id="Symbols" stroke="none" stroke-width="1" fill="none" fill-rule="evenodd">
        <g id="Yandex-Money">
            <path d="M0,19.005 C0,16.86 0.18,15.495 4.635,12.165 C8.325,9.405 20.145,0 20.145,0 L20.145,15.705 L29.145,15.705 L29.145,38.31 L2.805,38.31 C1.25925075,38.3017996 0.00820043406,37.0507493 0,35.505 L0,19.005" id="Shape" fill="#FFCE01"></path>
            <polyline id="Shape" fill="#D2AA07" points="20.145 15.705 20.145 24.81 3.63 36.06 24.51 29.265 24.51 15.705 20.145 15.705"></polyline>
            <path d="M12.6,15.24 C13.56,14.085 14.97,13.74 15.75,14.34 C16.53,14.94 16.365,16.455 15.405,17.595 C14.445,18.735 13.035,19.095 12.255,18.495 C11.475,17.895 11.64,16.38 12.6,15.24" id="Shape" fill="#231F20"></path>
        </g>
    </g>
</svg>
