<svg xmlns="http://www.w3.org/2000/svg" xmlns:xlink="http://www.w3.org/1999/xlink" version="1.1" enable-background="new 0 0 244.2 90" xml:space="preserve" width="92.38709794023657" height="91.61290321340175"><rect id="backgroundrect" width="100%" height="100%" x="0" y="0" fill="none" stroke="none" style="" class="selected"/>


<g class="currentLayer" style=""><title>Layer 1</title><g id="svg_1">
	<g id="tgmAOB_1_">
		<g id="svg_2">
			<g id="_x34_o0Zdu.tif">
				<g id="svg_3">
					<g id="B0wFFZ.tif">
						<circle fill="none" stroke="#000000" stroke-width="10" stroke-miterlimit="10" cx="45" cy="45" r="40" id="svg_4"/>
					</g>
				</g>
			</g>
		</g>
	</g>
	<path d="M42.3,56.2c6.7,0,13,0,19.5,0c0,3.3,0,6.5,0,9.8c-3.9,0-7.8,0-12,0c0.2,2.8,0.3,5.4,0.5,8.2c-3.4,0-6.6,0-10.1,0   c0-2.6,0-5.3,0-8.1c-4.1,0-7.9,0-12,0c0-3.2-0.4-6.4,0.2-9.4c0.3-1.6,2.1-3,3.2-4.4c3.8-4.5,7.6-8.9,11.5-13.4   c1.5-1.7,3-3.3,4.7-5.2c-6.4,0-12.5,0-18.7,0c0-3.3,0-6.5,0-9.8c3.6,0,7.3,0,11.1,0c0-2.8,0-5.4,0-8.2c3.3,0,6.4,0,9.7,0   c0,2.6,0,5.2,0,8c4,0,7.9,0,12.1,0c0,3.3,0.4,6.5-0.2,9.5c-0.3,1.6-2.1,3-3.3,4.4c-3.8,4.5-7.6,8.9-11.5,13.4   C45.5,52.8,44,54.4,42.3,56.2z" id="svg_5"/>
</g><g id="svg_6" class="">
	<path d="M152.28064532279967,51.3 l0.1,0.2 c0.1,4.2 -1.3,7.7 -4.1,10.3 c-2.8,2.7 -6.7,4 -11.5,4 c-4.9,0 -8.9,-1.6 -11.9,-4.9 c-3.1,-3.3 -4.6,-7.5 -4.6,-12.6 v-8 c0,-5.1 1.5,-9.3 4.5,-12.6 c3,-3.3 6.9,-5 11.8,-5 c4.9,0 8.8,1.3 11.7,3.9 s4.2,6.1 4.2,10.5 l-0.1,0.2 H145.58064532279968 c0,-2.8 -0.8,-5 -2.3,-6.6 c-1.5,-1.6 -3.8,-2.4 -6.7,-2.4 c-2.9,0 -5.1,1.1 -6.8,3.4 c-1.7000000000000002,2.3 -2.5,5.1 -2.5,8.5 v8 c0,3.4 0.9,6.3 2.6,8.6 c1.7000000000000002,2.3 4,3.4 6.9,3.4 c2.9,0 5.1,-0.8 6.6,-2.3 c1.5,-1.5 2.2,-3.7 2.2,-6.6 H152.28064532279967 z" id="svg_7"/>
	<path d="M181.8806453227997,55.4 h-16.4 l-3.3,9.8 h-7.1 l15.4,-41.8 h6.6 l15.2,41.8 h-7.1 L181.8806453227997,55.4 zM167.4806453227997,49.5 h12.4 l-6.1,-17.9 H173.58064532279968 L167.4806453227997,49.5 z" id="svg_8"/>
	<path d="M219.78064532279967,54.4 c0,-1.7000000000000002 -0.6000000000000006,-3.2 -1.9,-4.3 s-3.6,-2.1 -6.9,-3 c-4.7,-1.2 -8.3,-2.8 -10.8,-4.9 c-2.5,-2 -3.8,-4.7 -3.8,-7.9 c0,-3.4 1.4,-6.1 4.2,-8.3 c2.8,-2.2 6.4,-3.3 10.8,-3.3 c4.6,0 8.3,1.2 11.1,3.7 c2.8,2.5 4.1,5.5 4,8.9 l-0.1,0.2 h-6.7 c0,-2.1 -0.7000000000000006,-3.9 -2.2,-5.2 c-1.5,-1.3 -3.5,-2 -6.2,-2 c-2.5,0 -4.5,0.6000000000000006 -5.9,1.7000000000000002 c-1.4,1.1 -2.1,2.5 -2.1,4.3 c0,1.6 0.7000000000000006,2.9 2.2,4 c1.5,1.1 3.9,2 7.4,3 c4.5,1.2 7.9,2.9 10.3,5 s3.5,4.8 3.5,8.1 c0,3.5 -1.4,6.3 -4.2,8.3 c-2.8,2.1 -6.5,3.1 -11,3.1 c-4.4,0 -8.2,-1.2 -11.5,-3.5 c-3.3,-2.3 -4.9,-5.5 -4.8,-9.5 l0.1,-0.2 h6.7 c0,2.5 0.9,4.4 2.6,5.7 c1.8,1.3 4.1,1.9 6.9,1.9 c2.6,0 4.6,-0.5 6,-1.6 C219.08064532279968,57.5 219.78064532279967,56.1 219.78064532279967,54.4 z" id="svg_9"/>
	<path d="M266.78064532279967,65.1 h-7 V47.3 h-18.7 v17.8 h-7 V23.3 h7 v18.4 h18.7 V23.3 h7 V65.1 z" id="svg_10"/>
</g><g class="" id="svg_11">
	<path d="M153.0870969414711,51.3 l0.1,0.2 c0.1,4.2 -1.3,7.7 -4.1,10.3 c-2.8,2.7 -6.7,4 -11.5,4 c-4.9,0 -8.9,-1.6 -11.9,-4.9 c-3.1,-3.3 -4.6,-7.5 -4.6,-12.6 v-8 c0,-5.1 1.5,-9.3 4.5,-12.6 c3,-3.3 6.9,-5 11.8,-5 c4.9,0 8.8,1.3 11.7,3.9 s4.2,6.1 4.2,10.5 l-0.1,0.2 H146.3870969414711 c0,-2.8 -0.8,-5 -2.3,-6.6 c-1.5,-1.6 -3.8,-2.4 -6.7,-2.4 c-2.9,0 -5.1,1.1 -6.8,3.4 c-1.7000000000000002,2.3 -2.5,5.1 -2.5,8.5 v8 c0,3.4 0.9,6.3 2.6,8.6 c1.7000000000000002,2.3 4,3.4 6.9,3.4 c2.9,0 5.1,-0.8 6.6,-2.3 c1.5,-1.5 2.2,-3.7 2.2,-6.6 H153.0870969414711 z" id="svg_13"/>
	<path d="M182.6870969414711,55.4 h-16.4 l-3.3,9.8 h-7.1 l15.4,-41.8 h6.6 l15.2,41.8 h-7.1 L182.6870969414711,55.4 zM168.2870969414711,49.5 h12.4 l-6.1,-17.9 H174.3870969414711 L168.2870969414711,49.5 z" id="svg_15"/>
	<path d="M220.5870969414711,54.4 c0,-1.7000000000000002 -0.6000000000000006,-3.2 -1.9,-4.3 s-3.6,-2.1 -6.9,-3 c-4.7,-1.2 -8.3,-2.8 -10.8,-4.9 c-2.5,-2 -3.8,-4.7 -3.8,-7.9 c0,-3.4 1.4,-6.1 4.2,-8.3 c2.8,-2.2 6.4,-3.3 10.8,-3.3 c4.6,0 8.3,1.2 11.1,3.7 c2.8,2.5 4.1,5.5 4,8.9 l-0.1,0.2 h-6.7 c0,-2.1 -0.7000000000000006,-3.9 -2.2,-5.2 c-1.5,-1.3 -3.5,-2 -6.2,-2 c-2.5,0 -4.5,0.6000000000000006 -5.9,1.7000000000000002 c-1.4,1.1 -2.1,2.5 -2.1,4.3 c0,1.6 0.7000000000000006,2.9 2.2,4 c1.5,1.1 3.9,2 7.4,3 c4.5,1.2 7.9,2.9 10.3,5 s3.5,4.8 3.5,8.1 c0,3.5 -1.4,6.3 -4.2,8.3 c-2.8,2.1 -6.5,3.1 -11,3.1 c-4.4,0 -8.2,-1.2 -11.5,-3.5 c-3.3,-2.3 -4.9,-5.5 -4.8,-9.5 l0.1,-0.2 h6.7 c0,2.5 0.9,4.4 2.6,5.7 c1.8,1.3 4.1,1.9 6.9,1.9 c2.6,0 4.6,-0.5 6,-1.6 C219.8870969414711,57.5 220.5870969414711,56.1 220.5870969414711,54.4 z" id="svg_17"/>
	<path d="M267.5870969414711,65.1 h-7 V47.3 h-18.7 v17.8 h-7 V23.3 h7 v18.4 h18.7 V23.3 h7 V65.1 z" id="svg_19"/>
</g><g class="" id="svg_21">
	<path d="M153.8935485601425,51.3 l0.1,0.2 c0.1,4.2 -1.3,7.7 -4.1,10.3 c-2.8,2.7 -6.7,4 -11.5,4 c-4.9,0 -8.9,-1.6 -11.9,-4.9 c-3.1,-3.3 -4.6,-7.5 -4.6,-12.6 v-8 c0,-5.1 1.5,-9.3 4.5,-12.6 c3,-3.3 6.9,-5 11.8,-5 c4.9,0 8.8,1.3 11.7,3.9 s4.2,6.1 4.2,10.5 l-0.1,0.2 H147.19354856014252 c0,-2.8 -0.8,-5 -2.3,-6.6 c-1.5,-1.6 -3.8,-2.4 -6.7,-2.4 c-2.9,0 -5.1,1.1 -6.8,3.4 c-1.7000000000000002,2.3 -2.5,5.1 -2.5,8.5 v8 c0,3.4 0.9,6.3 2.6,8.6 c1.7000000000000002,2.3 4,3.4 6.9,3.4 c2.9,0 5.1,-0.8 6.6,-2.3 c1.5,-1.5 2.2,-3.7 2.2,-6.6 H153.8935485601425 z" id="svg_23"/>
	<path d="M183.49354856014253,55.4 h-16.4 l-3.3,9.8 h-7.1 l15.4,-41.8 h6.6 l15.2,41.8 h-7.1 L183.49354856014253,55.4 zM169.09354856014252,49.5 h12.4 l-6.1,-17.9 H175.19354856014252 L169.09354856014252,49.5 z" id="svg_25"/>
	<path d="M221.3935485601425,54.4 c0,-1.7000000000000002 -0.6000000000000006,-3.2 -1.9,-4.3 s-3.6,-2.1 -6.9,-3 c-4.7,-1.2 -8.3,-2.8 -10.8,-4.9 c-2.5,-2 -3.8,-4.7 -3.8,-7.9 c0,-3.4 1.4,-6.1 4.2,-8.3 c2.8,-2.2 6.4,-3.3 10.8,-3.3 c4.6,0 8.3,1.2 11.1,3.7 c2.8,2.5 4.1,5.5 4,8.9 l-0.1,0.2 h-6.7 c0,-2.1 -0.7000000000000006,-3.9 -2.2,-5.2 c-1.5,-1.3 -3.5,-2 -6.2,-2 c-2.5,0 -4.5,0.6000000000000006 -5.9,1.7000000000000002 c-1.4,1.1 -2.1,2.5 -2.1,4.3 c0,1.6 0.7000000000000006,2.9 2.2,4 c1.5,1.1 3.9,2 7.4,3 c4.5,1.2 7.9,2.9 10.3,5 s3.5,4.8 3.5,8.1 c0,3.5 -1.4,6.3 -4.2,8.3 c-2.8,2.1 -6.5,3.1 -11,3.1 c-4.4,0 -8.2,-1.2 -11.5,-3.5 c-3.3,-2.3 -4.9,-5.5 -4.8,-9.5 l0.1,-0.2 h6.7 c0,2.5 0.9,4.4 2.6,5.7 c1.8,1.3 4.1,1.9 6.9,1.9 c2.6,0 4.6,-0.5 6,-1.6 C220.69354856014252,57.5 221.3935485601425,56.1 221.3935485601425,54.4 z" id="svg_27"/>
	<path d="M268.3935485601425,65.1 h-7 V47.3 h-18.7 v17.8 h-7 V23.3 h7 v18.4 h18.7 V23.3 h7 V65.1 z" id="svg_29"/>
</g><g class="" id="svg_31">
	<path d="M154.70000017881392,51.3 l0.1,0.2 c0.1,4.2 -1.3,7.7 -4.1,10.3 c-2.8,2.7 -6.7,4 -11.5,4 c-4.9,0 -8.9,-1.6 -11.9,-4.9 c-3.1,-3.3 -4.6,-7.5 -4.6,-12.6 v-8 c0,-5.1 1.5,-9.3 4.5,-12.6 c3,-3.3 6.9,-5 11.8,-5 c4.9,0 8.8,1.3 11.7,3.9 s4.2,6.1 4.2,10.5 l-0.1,0.2 H148.00000017881393 c0,-2.8 -0.8,-5 -2.3,-6.6 c-1.5,-1.6 -3.8,-2.4 -6.7,-2.4 c-2.9,0 -5.1,1.1 -6.8,3.4 c-1.7000000000000002,2.3 -2.5,5.1 -2.5,8.5 v8 c0,3.4 0.9,6.3 2.6,8.6 c1.7000000000000002,2.3 4,3.4 6.9,3.4 c2.9,0 5.1,-0.8 6.6,-2.3 c1.5,-1.5 2.2,-3.7 2.2,-6.6 H154.70000017881392 z" id="svg_33"/>
	<path d="M184.30000017881395,55.4 h-16.4 l-3.3,9.8 h-7.1 l15.4,-41.8 h6.6 l15.2,41.8 h-7.1 L184.30000017881395,55.4 zM169.90000017881394,49.5 h12.4 l-6.1,-17.9 H176.00000017881393 L169.90000017881394,49.5 z" id="svg_35"/>
	<path d="M222.20000017881392,54.4 c0,-1.7000000000000002 -0.6000000000000006,-3.2 -1.9,-4.3 s-3.6,-2.1 -6.9,-3 c-4.7,-1.2 -8.3,-2.8 -10.8,-4.9 c-2.5,-2 -3.8,-4.7 -3.8,-7.9 c0,-3.4 1.4,-6.1 4.2,-8.3 c2.8,-2.2 6.4,-3.3 10.8,-3.3 c4.6,0 8.3,1.2 11.1,3.7 c2.8,2.5 4.1,5.5 4,8.9 l-0.1,0.2 h-6.7 c0,-2.1 -0.7000000000000006,-3.9 -2.2,-5.2 c-1.5,-1.3 -3.5,-2 -6.2,-2 c-2.5,0 -4.5,0.6000000000000006 -5.9,1.7000000000000002 c-1.4,1.1 -2.1,2.5 -2.1,4.3 c0,1.6 0.7000000000000006,2.9 2.2,4 c1.5,1.1 3.9,2 7.4,3 c4.5,1.2 7.9,2.9 10.3,5 s3.5,4.8 3.5,8.1 c0,3.5 -1.4,6.3 -4.2,8.3 c-2.8,2.1 -6.5,3.1 -11,3.1 c-4.4,0 -8.2,-1.2 -11.5,-3.5 c-3.3,-2.3 -4.9,-5.5 -4.8,-9.5 l0.1,-0.2 h6.7 c0,2.5 0.9,4.4 2.6,5.7 c1.8,1.3 4.1,1.9 6.9,1.9 c2.6,0 4.6,-0.5 6,-1.6 C221.50000017881393,57.5 222.20000017881392,56.1 222.20000017881392,54.4 z" id="svg_37"/>
	<path d="M269.2000001788139,65.1 h-7 V47.3 h-18.7 v17.8 h-7 V23.3 h7 v18.4 h18.7 V23.3 h7 V65.1 z" id="svg_39"/>
</g><g class="" id="svg_41">
	<path d="M155.50645179748534,51.3 l0.1,0.2 c0.1,4.2 -1.3,7.7 -4.1,10.3 c-2.8,2.7 -6.7,4 -11.5,4 c-4.9,0 -8.9,-1.6 -11.9,-4.9 c-3.1,-3.3 -4.6,-7.5 -4.6,-12.6 v-8 c0,-5.1 1.5,-9.3 4.5,-12.6 c3,-3.3 6.9,-5 11.8,-5 c4.9,0 8.8,1.3 11.7,3.9 s4.2,6.1 4.2,10.5 l-0.1,0.2 H148.80645179748535 c0,-2.8 -0.8,-5 -2.3,-6.6 c-1.5,-1.6 -3.8,-2.4 -6.7,-2.4 c-2.9,0 -5.1,1.1 -6.8,3.4 c-1.7000000000000002,2.3 -2.5,5.1 -2.5,8.5 v8 c0,3.4 0.9,6.3 2.6,8.6 c1.7000000000000002,2.3 4,3.4 6.9,3.4 c2.9,0 5.1,-0.8 6.6,-2.3 c1.5,-1.5 2.2,-3.7 2.2,-6.6 H155.50645179748534 z" id="svg_43"/>
	<path d="M185.10645179748536,55.4 h-16.4 l-3.3,9.8 h-7.1 l15.4,-41.8 h6.6 l15.2,41.8 h-7.1 L185.10645179748536,55.4 zM170.70645179748536,49.5 h12.4 l-6.1,-17.9 H176.80645179748535 L170.70645179748536,49.5 z" id="svg_45"/>
	<path d="M223.00645179748534,54.4 c0,-1.7000000000000002 -0.6000000000000006,-3.2 -1.9,-4.3 s-3.6,-2.1 -6.9,-3 c-4.7,-1.2 -8.3,-2.8 -10.8,-4.9 c-2.5,-2 -3.8,-4.7 -3.8,-7.9 c0,-3.4 1.4,-6.1 4.2,-8.3 c2.8,-2.2 6.4,-3.3 10.8,-3.3 c4.6,0 8.3,1.2 11.1,3.7 c2.8,2.5 4.1,5.5 4,8.9 l-0.1,0.2 h-6.7 c0,-2.1 -0.7000000000000006,-3.9 -2.2,-5.2 c-1.5,-1.3 -3.5,-2 -6.2,-2 c-2.5,0 -4.5,0.6000000000000006 -5.9,1.7000000000000002 c-1.4,1.1 -2.1,2.5 -2.1,4.3 c0,1.6 0.7000000000000006,2.9 2.2,4 c1.5,1.1 3.9,2 7.4,3 c4.5,1.2 7.9,2.9 10.3,5 s3.5,4.8 3.5,8.1 c0,3.5 -1.4,6.3 -4.2,8.3 c-2.8,2.1 -6.5,3.1 -11,3.1 c-4.4,0 -8.2,-1.2 -11.5,-3.5 c-3.3,-2.3 -4.9,-5.5 -4.8,-9.5 l0.1,-0.2 h6.7 c0,2.5 0.9,4.4 2.6,5.7 c1.8,1.3 4.1,1.9 6.9,1.9 c2.6,0 4.6,-0.5 6,-1.6 C222.30645179748535,57.5 223.00645179748534,56.1 223.00645179748534,54.4 z" id="svg_47"/>
	<path d="M270.00645179748534,65.1 h-7 V47.3 h-18.7 v17.8 h-7 V23.3 h7 v18.4 h18.7 V23.3 h7 V65.1 z" id="svg_49"/>
</g><g class="" id="svg_51">
	<path d="M156.31290341615676,51.3 l0.1,0.2 c0.1,4.2 -1.3,7.7 -4.1,10.3 c-2.8,2.7 -6.7,4 -11.5,4 c-4.9,0 -8.9,-1.6 -11.9,-4.9 c-3.1,-3.3 -4.6,-7.5 -4.6,-12.6 v-8 c0,-5.1 1.5,-9.3 4.5,-12.6 c3,-3.3 6.9,-5 11.8,-5 c4.9,0 8.8,1.3 11.7,3.9 s4.2,6.1 4.2,10.5 l-0.1,0.2 H149.61290341615677 c0,-2.8 -0.8,-5 -2.3,-6.6 c-1.5,-1.6 -3.8,-2.4 -6.7,-2.4 c-2.9,0 -5.1,1.1 -6.8,3.4 c-1.7000000000000002,2.3 -2.5,5.1 -2.5,8.5 v8 c0,3.4 0.9,6.3 2.6,8.6 c1.7000000000000002,2.3 4,3.4 6.9,3.4 c2.9,0 5.1,-0.8 6.6,-2.3 c1.5,-1.5 2.2,-3.7 2.2,-6.6 H156.31290341615676 z" id="svg_53"/>
	<path d="M185.91290341615678,55.4 h-16.4 l-3.3,9.8 h-7.1 l15.4,-41.8 h6.6 l15.2,41.8 h-7.1 L185.91290341615678,55.4 zM171.51290341615677,49.5 h12.4 l-6.1,-17.9 H177.61290341615677 L171.51290341615677,49.5 z" id="svg_55"/>
	<path d="M223.81290341615676,54.4 c0,-1.7000000000000002 -0.6000000000000006,-3.2 -1.9,-4.3 s-3.6,-2.1 -6.9,-3 c-4.7,-1.2 -8.3,-2.8 -10.8,-4.9 c-2.5,-2 -3.8,-4.7 -3.8,-7.9 c0,-3.4 1.4,-6.1 4.2,-8.3 c2.8,-2.2 6.4,-3.3 10.8,-3.3 c4.6,0 8.3,1.2 11.1,3.7 c2.8,2.5 4.1,5.5 4,8.9 l-0.1,0.2 h-6.7 c0,-2.1 -0.7000000000000006,-3.9 -2.2,-5.2 c-1.5,-1.3 -3.5,-2 -6.2,-2 c-2.5,0 -4.5,0.6000000000000006 -5.9,1.7000000000000002 c-1.4,1.1 -2.1,2.5 -2.1,4.3 c0,1.6 0.7000000000000006,2.9 2.2,4 c1.5,1.1 3.9,2 7.4,3 c4.5,1.2 7.9,2.9 10.3,5 s3.5,4.8 3.5,8.1 c0,3.5 -1.4,6.3 -4.2,8.3 c-2.8,2.1 -6.5,3.1 -11,3.1 c-4.4,0 -8.2,-1.2 -11.5,-3.5 c-3.3,-2.3 -4.9,-5.5 -4.8,-9.5 l0.1,-0.2 h6.7 c0,2.5 0.9,4.4 2.6,5.7 c1.8,1.3 4.1,1.9 6.9,1.9 c2.6,0 4.6,-0.5 6,-1.6 C223.11290341615677,57.5 223.81290341615676,56.1 223.81290341615676,54.4 z" id="svg_57"/>
	<path d="M270.81290341615676,65.1 h-7 V47.3 h-18.7 v17.8 h-7 V23.3 h7 v18.4 h18.7 V23.3 h7 V65.1 z" id="svg_59"/>
</g><g class="" id="svg_61">
	<path d="M157.11935503482817,51.3 l0.1,0.2 c0.1,4.2 -1.3,7.7 -4.1,10.3 c-2.8,2.7 -6.7,4 -11.5,4 c-4.9,0 -8.9,-1.6 -11.9,-4.9 c-3.1,-3.3 -4.6,-7.5 -4.6,-12.6 v-8 c0,-5.1 1.5,-9.3 4.5,-12.6 c3,-3.3 6.9,-5 11.8,-5 c4.9,0 8.8,1.3 11.7,3.9 s4.2,6.1 4.2,10.5 l-0.1,0.2 H150.4193550348282 c0,-2.8 -0.8,-5 -2.3,-6.6 c-1.5,-1.6 -3.8,-2.4 -6.7,-2.4 c-2.9,0 -5.1,1.1 -6.8,3.4 c-1.7000000000000002,2.3 -2.5,5.1 -2.5,8.5 v8 c0,3.4 0.9,6.3 2.6,8.6 c1.7000000000000002,2.3 4,3.4 6.9,3.4 c2.9,0 5.1,-0.8 6.6,-2.3 c1.5,-1.5 2.2,-3.7 2.2,-6.6 H157.11935503482817 z" id="svg_63"/>
	<path d="M186.7193550348282,55.4 h-16.4 l-3.3,9.8 h-7.1 l15.4,-41.8 h6.6 l15.2,41.8 h-7.1 L186.7193550348282,55.4 zM172.3193550348282,49.5 h12.4 l-6.1,-17.9 H178.4193550348282 L172.3193550348282,49.5 z" id="svg_65"/>
	<path d="M224.61935503482817,54.4 c0,-1.7000000000000002 -0.6000000000000006,-3.2 -1.9,-4.3 s-3.6,-2.1 -6.9,-3 c-4.7,-1.2 -8.3,-2.8 -10.8,-4.9 c-2.5,-2 -3.8,-4.7 -3.8,-7.9 c0,-3.4 1.4,-6.1 4.2,-8.3 c2.8,-2.2 6.4,-3.3 10.8,-3.3 c4.6,0 8.3,1.2 11.1,3.7 c2.8,2.5 4.1,5.5 4,8.9 l-0.1,0.2 h-6.7 c0,-2.1 -0.7000000000000006,-3.9 -2.2,-5.2 c-1.5,-1.3 -3.5,-2 -6.2,-2 c-2.5,0 -4.5,0.6000000000000006 -5.9,1.7000000000000002 c-1.4,1.1 -2.1,2.5 -2.1,4.3 c0,1.6 0.7000000000000006,2.9 2.2,4 c1.5,1.1 3.9,2 7.4,3 c4.5,1.2 7.9,2.9 10.3,5 s3.5,4.8 3.5,8.1 c0,3.5 -1.4,6.3 -4.2,8.3 c-2.8,2.1 -6.5,3.1 -11,3.1 c-4.4,0 -8.2,-1.2 -11.5,-3.5 c-3.3,-2.3 -4.9,-5.5 -4.8,-9.5 l0.1,-0.2 h6.7 c0,2.5 0.9,4.4 2.6,5.7 c1.8,1.3 4.1,1.9 6.9,1.9 c2.6,0 4.6,-0.5 6,-1.6 C223.9193550348282,57.5 224.61935503482817,56.1 224.61935503482817,54.4 z" id="svg_67"/>
	<path d="M271.6193550348282,65.1 h-7 V47.3 h-18.7 v17.8 h-7 V23.3 h7 v18.4 h18.7 V23.3 h7 V65.1 z" id="svg_69"/>
</g><g class="" id="svg_71">
	<path d="M157.9258066534996,51.3 l0.1,0.2 c0.1,4.2 -1.3,7.7 -4.1,10.3 c-2.8,2.7 -6.7,4 -11.5,4 c-4.9,0 -8.9,-1.6 -11.9,-4.9 c-3.1,-3.3 -4.6,-7.5 -4.6,-12.6 v-8 c0,-5.1 1.5,-9.3 4.5,-12.6 c3,-3.3 6.9,-5 11.8,-5 c4.9,0 8.8,1.3 11.7,3.9 s4.2,6.1 4.2,10.5 l-0.1,0.2 H151.2258066534996 c0,-2.8 -0.8,-5 -2.3,-6.6 c-1.5,-1.6 -3.8,-2.4 -6.7,-2.4 c-2.9,0 -5.1,1.1 -6.8,3.4 c-1.7000000000000002,2.3 -2.5,5.1 -2.5,8.5 v8 c0,3.4 0.9,6.3 2.6,8.6 c1.7000000000000002,2.3 4,3.4 6.9,3.4 c2.9,0 5.1,-0.8 6.6,-2.3 c1.5,-1.5 2.2,-3.7 2.2,-6.6 H157.9258066534996 z" id="svg_73"/>
	<path d="M187.52580665349961,55.4 h-16.4 l-3.3,9.8 h-7.1 l15.4,-41.8 h6.6 l15.2,41.8 h-7.1 L187.52580665349961,55.4 zM173.1258066534996,49.5 h12.4 l-6.1,-17.9 H179.2258066534996 L173.1258066534996,49.5 z" id="svg_75"/>
	<path d="M225.4258066534996,54.4 c0,-1.7000000000000002 -0.6000000000000006,-3.2 -1.9,-4.3 s-3.6,-2.1 -6.9,-3 c-4.7,-1.2 -8.3,-2.8 -10.8,-4.9 c-2.5,-2 -3.8,-4.7 -3.8,-7.9 c0,-3.4 1.4,-6.1 4.2,-8.3 c2.8,-2.2 6.4,-3.3 10.8,-3.3 c4.6,0 8.3,1.2 11.1,3.7 c2.8,2.5 4.1,5.5 4,8.9 l-0.1,0.2 h-6.7 c0,-2.1 -0.7000000000000006,-3.9 -2.2,-5.2 c-1.5,-1.3 -3.5,-2 -6.2,-2 c-2.5,0 -4.5,0.6000000000000006 -5.9,1.7000000000000002 c-1.4,1.1 -2.1,2.5 -2.1,4.3 c0,1.6 0.7000000000000006,2.9 2.2,4 c1.5,1.1 3.9,2 7.4,3 c4.5,1.2 7.9,2.9 10.3,5 s3.5,4.8 3.5,8.1 c0,3.5 -1.4,6.3 -4.2,8.3 c-2.8,2.1 -6.5,3.1 -11,3.1 c-4.4,0 -8.2,-1.2 -11.5,-3.5 c-3.3,-2.3 -4.9,-5.5 -4.8,-9.5 l0.1,-0.2 h6.7 c0,2.5 0.9,4.4 2.6,5.7 c1.8,1.3 4.1,1.9 6.9,1.9 c2.6,0 4.6,-0.5 6,-1.6 C224.7258066534996,57.5 225.4258066534996,56.1 225.4258066534996,54.4 z" id="svg_77"/>
	<path d="M272.4258066534996,65.1 h-7 V47.3 h-18.7 v17.8 h-7 V23.3 h7 v18.4 h18.7 V23.3 h7 V65.1 z" id="svg_79"/>
</g><g class="" id="svg_81">
	<path d="M158.732258272171,51.3 l0.1,0.2 c0.1,4.2 -1.3,7.7 -4.1,10.3 c-2.8,2.7 -6.7,4 -11.5,4 c-4.9,0 -8.9,-1.6 -11.9,-4.9 c-3.1,-3.3 -4.6,-7.5 -4.6,-12.6 v-8 c0,-5.1 1.5,-9.3 4.5,-12.6 c3,-3.3 6.9,-5 11.8,-5 c4.9,0 8.8,1.3 11.7,3.9 s4.2,6.1 4.2,10.5 l-0.1,0.2 H152.03225827217102 c0,-2.8 -0.8,-5 -2.3,-6.6 c-1.5,-1.6 -3.8,-2.4 -6.7,-2.4 c-2.9,0 -5.1,1.1 -6.8,3.4 c-1.7000000000000002,2.3 -2.5,5.1 -2.5,8.5 v8 c0,3.4 0.9,6.3 2.6,8.6 c1.7000000000000002,2.3 4,3.4 6.9,3.4 c2.9,0 5.1,-0.8 6.6,-2.3 c1.5,-1.5 2.2,-3.7 2.2,-6.6 H158.732258272171 z" id="svg_83"/>
	<path d="M188.33225827217103,55.4 h-16.4 l-3.3,9.8 h-7.1 l15.4,-41.8 h6.6 l15.2,41.8 h-7.1 L188.33225827217103,55.4 zM173.93225827217103,49.5 h12.4 l-6.1,-17.9 H180.03225827217102 L173.93225827217103,49.5 z" id="svg_85"/>
	<path d="M226.232258272171,54.4 c0,-1.7000000000000002 -0.6000000000000006,-3.2 -1.9,-4.3 s-3.6,-2.1 -6.9,-3 c-4.7,-1.2 -8.3,-2.8 -10.8,-4.9 c-2.5,-2 -3.8,-4.7 -3.8,-7.9 c0,-3.4 1.4,-6.1 4.2,-8.3 c2.8,-2.2 6.4,-3.3 10.8,-3.3 c4.6,0 8.3,1.2 11.1,3.7 c2.8,2.5 4.1,5.5 4,8.9 l-0.1,0.2 h-6.7 c0,-2.1 -0.7000000000000006,-3.9 -2.2,-5.2 c-1.5,-1.3 -3.5,-2 -6.2,-2 c-2.5,0 -4.5,0.6000000000000006 -5.9,1.7000000000000002 c-1.4,1.1 -2.1,2.5 -2.1,4.3 c0,1.6 0.7000000000000006,2.9 2.2,4 c1.5,1.1 3.9,2 7.4,3 c4.5,1.2 7.9,2.9 10.3,5 s3.5,4.8 3.5,8.1 c0,3.5 -1.4,6.3 -4.2,8.3 c-2.8,2.1 -6.5,3.1 -11,3.1 c-4.4,0 -8.2,-1.2 -11.5,-3.5 c-3.3,-2.3 -4.9,-5.5 -4.8,-9.5 l0.1,-0.2 h6.7 c0,2.5 0.9,4.4 2.6,5.7 c1.8,1.3 4.1,1.9 6.9,1.9 c2.6,0 4.6,-0.5 6,-1.6 C225.53225827217102,57.5 226.232258272171,56.1 226.232258272171,54.4 z" id="svg_87"/>
	<path d="M273.232258272171,65.1 h-7 V47.3 h-18.7 v17.8 h-7 V23.3 h7 v18.4 h18.7 V23.3 h7 V65.1 z" id="svg_89"/>
</g><g class="" id="svg_91">
	<path d="M159.53870989084243,51.3 l0.1,0.2 c0.1,4.2 -1.3,7.7 -4.1,10.3 c-2.8,2.7 -6.7,4 -11.5,4 c-4.9,0 -8.9,-1.6 -11.9,-4.9 c-3.1,-3.3 -4.6,-7.5 -4.6,-12.6 v-8 c0,-5.1 1.5,-9.3 4.5,-12.6 c3,-3.3 6.9,-5 11.8,-5 c4.9,0 8.8,1.3 11.7,3.9 s4.2,6.1 4.2,10.5 l-0.1,0.2 H152.83870989084244 c0,-2.8 -0.8,-5 -2.3,-6.6 c-1.5,-1.6 -3.8,-2.4 -6.7,-2.4 c-2.9,0 -5.1,1.1 -6.8,3.4 c-1.7000000000000002,2.3 -2.5,5.1 -2.5,8.5 v8 c0,3.4 0.9,6.3 2.6,8.6 c1.7000000000000002,2.3 4,3.4 6.9,3.4 c2.9,0 5.1,-0.8 6.6,-2.3 c1.5,-1.5 2.2,-3.7 2.2,-6.6 H159.53870989084243 z" id="svg_93"/>
	<path d="M189.13870989084245,55.4 h-16.4 l-3.3,9.8 h-7.1 l15.4,-41.8 h6.6 l15.2,41.8 h-7.1 L189.13870989084245,55.4 zM174.73870989084244,49.5 h12.4 l-6.1,-17.9 H180.83870989084244 L174.73870989084244,49.5 z" id="svg_95"/>
	<path d="M227.03870989084243,54.4 c0,-1.7000000000000002 -0.6000000000000006,-3.2 -1.9,-4.3 s-3.6,-2.1 -6.9,-3 c-4.7,-1.2 -8.3,-2.8 -10.8,-4.9 c-2.5,-2 -3.8,-4.7 -3.8,-7.9 c0,-3.4 1.4,-6.1 4.2,-8.3 c2.8,-2.2 6.4,-3.3 10.8,-3.3 c4.6,0 8.3,1.2 11.1,3.7 c2.8,2.5 4.1,5.5 4,8.9 l-0.1,0.2 h-6.7 c0,-2.1 -0.7000000000000006,-3.9 -2.2,-5.2 c-1.5,-1.3 -3.5,-2 -6.2,-2 c-2.5,0 -4.5,0.6000000000000006 -5.9,1.7000000000000002 c-1.4,1.1 -2.1,2.5 -2.1,4.3 c0,1.6 0.7000000000000006,2.9 2.2,4 c1.5,1.1 3.9,2 7.4,3 c4.5,1.2 7.9,2.9 10.3,5 s3.5,4.8 3.5,8.1 c0,3.5 -1.4,6.3 -4.2,8.3 c-2.8,2.1 -6.5,3.1 -11,3.1 c-4.4,0 -8.2,-1.2 -11.5,-3.5 c-3.3,-2.3 -4.9,-5.5 -4.8,-9.5 l0.1,-0.2 h6.7 c0,2.5 0.9,4.4 2.6,5.7 c1.8,1.3 4.1,1.9 6.9,1.9 c2.6,0 4.6,-0.5 6,-1.6 C226.33870989084244,57.5 227.03870989084243,56.1 227.03870989084243,54.4 z" id="svg_97"/>
	<path d="M274.0387098908424,65.1 h-7 V47.3 h-18.7 v17.8 h-7 V23.3 h7 v18.4 h18.7 V23.3 h7 V65.1 z" id="svg_99"/>
</g><g class="" id="svg_101">
	<path d="M160.34516150951384,51.3 l0.1,0.2 c0.1,4.2 -1.3,7.7 -4.1,10.3 c-2.8,2.7 -6.7,4 -11.5,4 c-4.9,0 -8.9,-1.6 -11.9,-4.9 c-3.1,-3.3 -4.6,-7.5 -4.6,-12.6 v-8 c0,-5.1 1.5,-9.3 4.5,-12.6 c3,-3.3 6.9,-5 11.8,-5 c4.9,0 8.8,1.3 11.7,3.9 s4.2,6.1 4.2,10.5 l-0.1,0.2 H153.64516150951385 c0,-2.8 -0.8,-5 -2.3,-6.6 c-1.5,-1.6 -3.8,-2.4 -6.7,-2.4 c-2.9,0 -5.1,1.1 -6.8,3.4 c-1.7000000000000002,2.3 -2.5,5.1 -2.5,8.5 v8 c0,3.4 0.9,6.3 2.6,8.6 c1.7000000000000002,2.3 4,3.4 6.9,3.4 c2.9,0 5.1,-0.8 6.6,-2.3 c1.5,-1.5 2.2,-3.7 2.2,-6.6 H160.34516150951384 z" id="svg_103"/>
	<path d="M189.94516150951387,55.4 h-16.4 l-3.3,9.8 h-7.1 l15.4,-41.8 h6.6 l15.2,41.8 h-7.1 L189.94516150951387,55.4 zM175.54516150951386,49.5 h12.4 l-6.1,-17.9 H181.64516150951385 L175.54516150951386,49.5 z" id="svg_105"/>
	<path d="M227.84516150951384,54.4 c0,-1.7000000000000002 -0.6000000000000006,-3.2 -1.9,-4.3 s-3.6,-2.1 -6.9,-3 c-4.7,-1.2 -8.3,-2.8 -10.8,-4.9 c-2.5,-2 -3.8,-4.7 -3.8,-7.9 c0,-3.4 1.4,-6.1 4.2,-8.3 c2.8,-2.2 6.4,-3.3 10.8,-3.3 c4.6,0 8.3,1.2 11.1,3.7 c2.8,2.5 4.1,5.5 4,8.9 l-0.1,0.2 h-6.7 c0,-2.1 -0.7000000000000006,-3.9 -2.2,-5.2 c-1.5,-1.3 -3.5,-2 -6.2,-2 c-2.5,0 -4.5,0.6000000000000006 -5.9,1.7000000000000002 c-1.4,1.1 -2.1,2.5 -2.1,4.3 c0,1.6 0.7000000000000006,2.9 2.2,4 c1.5,1.1 3.9,2 7.4,3 c4.5,1.2 7.9,2.9 10.3,5 s3.5,4.8 3.5,8.1 c0,3.5 -1.4,6.3 -4.2,8.3 c-2.8,2.1 -6.5,3.1 -11,3.1 c-4.4,0 -8.2,-1.2 -11.5,-3.5 c-3.3,-2.3 -4.9,-5.5 -4.8,-9.5 l0.1,-0.2 h6.7 c0,2.5 0.9,4.4 2.6,5.7 c1.8,1.3 4.1,1.9 6.9,1.9 c2.6,0 4.6,-0.5 6,-1.6 C227.14516150951385,57.5 227.84516150951384,56.1 227.84516150951384,54.4 z" id="svg_107"/>
	<path d="M274.84516150951384,65.1 h-7 V47.3 h-18.7 v17.8 h-7 V23.3 h7 v18.4 h18.7 V23.3 h7 V65.1 z" id="svg_109"/>
</g><g class="" id="svg_111">
	<path d="M161.15161312818526,51.3 l0.1,0.2 c0.1,4.2 -1.3,7.7 -4.1,10.3 c-2.8,2.7 -6.7,4 -11.5,4 c-4.9,0 -8.9,-1.6 -11.9,-4.9 c-3.1,-3.3 -4.6,-7.5 -4.6,-12.6 v-8 c0,-5.1 1.5,-9.3 4.5,-12.6 c3,-3.3 6.9,-5 11.8,-5 c4.9,0 8.8,1.3 11.7,3.9 s4.2,6.1 4.2,10.5 l-0.1,0.2 H154.45161312818527 c0,-2.8 -0.8,-5 -2.3,-6.6 c-1.5,-1.6 -3.8,-2.4 -6.7,-2.4 c-2.9,0 -5.1,1.1 -6.8,3.4 c-1.7000000000000002,2.3 -2.5,5.1 -2.5,8.5 v8 c0,3.4 0.9,6.3 2.6,8.6 c1.7000000000000002,2.3 4,3.4 6.9,3.4 c2.9,0 5.1,-0.8 6.6,-2.3 c1.5,-1.5 2.2,-3.7 2.2,-6.6 H161.15161312818526 z" id="svg_113"/>
	<path d="M190.75161312818528,55.4 h-16.4 l-3.3,9.8 h-7.1 l15.4,-41.8 h6.6 l15.2,41.8 h-7.1 L190.75161312818528,55.4 zM176.35161312818528,49.5 h12.4 l-6.1,-17.9 H182.45161312818527 L176.35161312818528,49.5 z" id="svg_115"/>
	<path d="M228.65161312818526,54.4 c0,-1.7000000000000002 -0.6000000000000006,-3.2 -1.9,-4.3 s-3.6,-2.1 -6.9,-3 c-4.7,-1.2 -8.3,-2.8 -10.8,-4.9 c-2.5,-2 -3.8,-4.7 -3.8,-7.9 c0,-3.4 1.4,-6.1 4.2,-8.3 c2.8,-2.2 6.4,-3.3 10.8,-3.3 c4.6,0 8.3,1.2 11.1,3.7 c2.8,2.5 4.1,5.5 4,8.9 l-0.1,0.2 h-6.7 c0,-2.1 -0.7000000000000006,-3.9 -2.2,-5.2 c-1.5,-1.3 -3.5,-2 -6.2,-2 c-2.5,0 -4.5,0.6000000000000006 -5.9,1.7000000000000002 c-1.4,1.1 -2.1,2.5 -2.1,4.3 c0,1.6 0.7000000000000006,2.9 2.2,4 c1.5,1.1 3.9,2 7.4,3 c4.5,1.2 7.9,2.9 10.3,5 s3.5,4.8 3.5,8.1 c0,3.5 -1.4,6.3 -4.2,8.3 c-2.8,2.1 -6.5,3.1 -11,3.1 c-4.4,0 -8.2,-1.2 -11.5,-3.5 c-3.3,-2.3 -4.9,-5.5 -4.8,-9.5 l0.1,-0.2 h6.7 c0,2.5 0.9,4.4 2.6,5.7 c1.8,1.3 4.1,1.9 6.9,1.9 c2.6,0 4.6,-0.5 6,-1.6 C227.95161312818527,57.5 228.65161312818526,56.1 228.65161312818526,54.4 z" id="svg_117"/>
	<path d="M275.65161312818526,65.1 h-7 V47.3 h-18.7 v17.8 h-7 V23.3 h7 v18.4 h18.7 V23.3 h7 V65.1 z" id="svg_119"/>
</g><g class="" id="svg_121">
	<path d="M161.95806474685668,51.3 l0.1,0.2 c0.1,4.2 -1.3,7.7 -4.1,10.3 c-2.8,2.7 -6.7,4 -11.5,4 c-4.9,0 -8.9,-1.6 -11.9,-4.9 c-3.1,-3.3 -4.6,-7.5 -4.6,-12.6 v-8 c0,-5.1 1.5,-9.3 4.5,-12.6 c3,-3.3 6.9,-5 11.8,-5 c4.9,0 8.8,1.3 11.7,3.9 s4.2,6.1 4.2,10.5 l-0.1,0.2 H155.2580647468567 c0,-2.8 -0.8,-5 -2.3,-6.6 c-1.5,-1.6 -3.8,-2.4 -6.7,-2.4 c-2.9,0 -5.1,1.1 -6.8,3.4 c-1.7000000000000002,2.3 -2.5,5.1 -2.5,8.5 v8 c0,3.4 0.9,6.3 2.6,8.6 c1.7000000000000002,2.3 4,3.4 6.9,3.4 c2.9,0 5.1,-0.8 6.6,-2.3 c1.5,-1.5 2.2,-3.7 2.2,-6.6 H161.95806474685668 z" id="svg_123"/>
	<path d="M191.5580647468567,55.4 h-16.4 l-3.3,9.8 h-7.1 l15.4,-41.8 h6.6 l15.2,41.8 h-7.1 L191.5580647468567,55.4 zM177.1580647468567,49.5 h12.4 l-6.1,-17.9 H183.2580647468567 L177.1580647468567,49.5 z" id="svg_125"/>
	<path d="M229.45806474685668,54.4 c0,-1.7000000000000002 -0.6000000000000006,-3.2 -1.9,-4.3 s-3.6,-2.1 -6.9,-3 c-4.7,-1.2 -8.3,-2.8 -10.8,-4.9 c-2.5,-2 -3.8,-4.7 -3.8,-7.9 c0,-3.4 1.4,-6.1 4.2,-8.3 c2.8,-2.2 6.4,-3.3 10.8,-3.3 c4.6,0 8.3,1.2 11.1,3.7 c2.8,2.5 4.1,5.5 4,8.9 l-0.1,0.2 h-6.7 c0,-2.1 -0.7000000000000006,-3.9 -2.2,-5.2 c-1.5,-1.3 -3.5,-2 -6.2,-2 c-2.5,0 -4.5,0.6000000000000006 -5.9,1.7000000000000002 c-1.4,1.1 -2.1,2.5 -2.1,4.3 c0,1.6 0.7000000000000006,2.9 2.2,4 c1.5,1.1 3.9,2 7.4,3 c4.5,1.2 7.9,2.9 10.3,5 s3.5,4.8 3.5,8.1 c0,3.5 -1.4,6.3 -4.2,8.3 c-2.8,2.1 -6.5,3.1 -11,3.1 c-4.4,0 -8.2,-1.2 -11.5,-3.5 c-3.3,-2.3 -4.9,-5.5 -4.8,-9.5 l0.1,-0.2 h6.7 c0,2.5 0.9,4.4 2.6,5.7 c1.8,1.3 4.1,1.9 6.9,1.9 c2.6,0 4.6,-0.5 6,-1.6 C228.7580647468567,57.5 229.45806474685668,56.1 229.45806474685668,54.4 z" id="svg_127"/>
	<path d="M276.4580647468567,65.1 h-7 V47.3 h-18.7 v17.8 h-7 V23.3 h7 v18.4 h18.7 V23.3 h7 V65.1 z" id="svg_129"/>
</g><g class="" id="svg_131">
	<path d="M161.15161312818526,51.3 l0.1,0.2 c0.1,4.2 -1.3,7.7 -4.1,10.3 c-2.8,2.7 -6.7,4 -11.5,4 c-4.9,0 -8.9,-1.6 -11.9,-4.9 c-3.1,-3.3 -4.6,-7.5 -4.6,-12.6 v-8 c0,-5.1 1.5,-9.3 4.5,-12.6 c3,-3.3 6.9,-5 11.8,-5 c4.9,0 8.8,1.3 11.7,3.9 s4.2,6.1 4.2,10.5 l-0.1,0.2 H154.45161312818527 c0,-2.8 -0.8,-5 -2.3,-6.6 c-1.5,-1.6 -3.8,-2.4 -6.7,-2.4 c-2.9,0 -5.1,1.1 -6.8,3.4 c-1.7000000000000002,2.3 -2.5,5.1 -2.5,8.5 v8 c0,3.4 0.9,6.3 2.6,8.6 c1.7000000000000002,2.3 4,3.4 6.9,3.4 c2.9,0 5.1,-0.8 6.6,-2.3 c1.5,-1.5 2.2,-3.7 2.2,-6.6 H161.15161312818526 z" id="svg_133"/>
	<path d="M190.75161312818528,55.4 h-16.4 l-3.3,9.8 h-7.1 l15.4,-41.8 h6.6 l15.2,41.8 h-7.1 L190.75161312818528,55.4 zM176.35161312818528,49.5 h12.4 l-6.1,-17.9 H182.45161312818527 L176.35161312818528,49.5 z" id="svg_135"/>
	<path d="M228.65161312818526,54.4 c0,-1.7000000000000002 -0.6000000000000006,-3.2 -1.9,-4.3 s-3.6,-2.1 -6.9,-3 c-4.7,-1.2 -8.3,-2.8 -10.8,-4.9 c-2.5,-2 -3.8,-4.7 -3.8,-7.9 c0,-3.4 1.4,-6.1 4.2,-8.3 c2.8,-2.2 6.4,-3.3 10.8,-3.3 c4.6,0 8.3,1.2 11.1,3.7 c2.8,2.5 4.1,5.5 4,8.9 l-0.1,0.2 h-6.7 c0,-2.1 -0.7000000000000006,-3.9 -2.2,-5.2 c-1.5,-1.3 -3.5,-2 -6.2,-2 c-2.5,0 -4.5,0.6000000000000006 -5.9,1.7000000000000002 c-1.4,1.1 -2.1,2.5 -2.1,4.3 c0,1.6 0.7000000000000006,2.9 2.2,4 c1.5,1.1 3.9,2 7.4,3 c4.5,1.2 7.9,2.9 10.3,5 s3.5,4.8 3.5,8.1 c0,3.5 -1.4,6.3 -4.2,8.3 c-2.8,2.1 -6.5,3.1 -11,3.1 c-4.4,0 -8.2,-1.2 -11.5,-3.5 c-3.3,-2.3 -4.9,-5.5 -4.8,-9.5 l0.1,-0.2 h6.7 c0,2.5 0.9,4.4 2.6,5.7 c1.8,1.3 4.1,1.9 6.9,1.9 c2.6,0 4.6,-0.5 6,-1.6 C227.95161312818527,57.5 228.65161312818526,56.1 228.65161312818526,54.4 z" id="svg_137"/>
	<path d="M275.65161312818526,65.1 h-7 V47.3 h-18.7 v17.8 h-7 V23.3 h7 v18.4 h18.7 V23.3 h7 V65.1 z" id="svg_139"/>
</g><g class="" id="svg_141">
	<path d="M160.34516150951384,51.3 l0.1,0.2 c0.1,4.2 -1.3,7.7 -4.1,10.3 c-2.8,2.7 -6.7,4 -11.5,4 c-4.9,0 -8.9,-1.6 -11.9,-4.9 c-3.1,-3.3 -4.6,-7.5 -4.6,-12.6 v-8 c0,-5.1 1.5,-9.3 4.5,-12.6 c3,-3.3 6.9,-5 11.8,-5 c4.9,0 8.8,1.3 11.7,3.9 s4.2,6.1 4.2,10.5 l-0.1,0.2 H153.64516150951385 c0,-2.8 -0.8,-5 -2.3,-6.6 c-1.5,-1.6 -3.8,-2.4 -6.7,-2.4 c-2.9,0 -5.1,1.1 -6.8,3.4 c-1.7000000000000002,2.3 -2.5,5.1 -2.5,8.5 v8 c0,3.4 0.9,6.3 2.6,8.6 c1.7000000000000002,2.3 4,3.4 6.9,3.4 c2.9,0 5.1,-0.8 6.6,-2.3 c1.5,-1.5 2.2,-3.7 2.2,-6.6 H160.34516150951384 z" id="svg_143"/>
	<path d="M189.94516150951387,55.4 h-16.4 l-3.3,9.8 h-7.1 l15.4,-41.8 h6.6 l15.2,41.8 h-7.1 L189.94516150951387,55.4 zM175.54516150951386,49.5 h12.4 l-6.1,-17.9 H181.64516150951385 L175.54516150951386,49.5 z" id="svg_145"/>
	<path d="M227.84516150951384,54.4 c0,-1.7000000000000002 -0.6000000000000006,-3.2 -1.9,-4.3 s-3.6,-2.1 -6.9,-3 c-4.7,-1.2 -8.3,-2.8 -10.8,-4.9 c-2.5,-2 -3.8,-4.7 -3.8,-7.9 c0,-3.4 1.4,-6.1 4.2,-8.3 c2.8,-2.2 6.4,-3.3 10.8,-3.3 c4.6,0 8.3,1.2 11.1,3.7 c2.8,2.5 4.1,5.5 4,8.9 l-0.1,0.2 h-6.7 c0,-2.1 -0.7000000000000006,-3.9 -2.2,-5.2 c-1.5,-1.3 -3.5,-2 -6.2,-2 c-2.5,0 -4.5,0.6000000000000006 -5.9,1.7000000000000002 c-1.4,1.1 -2.1,2.5 -2.1,4.3 c0,1.6 0.7000000000000006,2.9 2.2,4 c1.5,1.1 3.9,2 7.4,3 c4.5,1.2 7.9,2.9 10.3,5 s3.5,4.8 3.5,8.1 c0,3.5 -1.4,6.3 -4.2,8.3 c-2.8,2.1 -6.5,3.1 -11,3.1 c-4.4,0 -8.2,-1.2 -11.5,-3.5 c-3.3,-2.3 -4.9,-5.5 -4.8,-9.5 l0.1,-0.2 h6.7 c0,2.5 0.9,4.4 2.6,5.7 c1.8,1.3 4.1,1.9 6.9,1.9 c2.6,0 4.6,-0.5 6,-1.6 C227.14516150951385,57.5 227.84516150951384,56.1 227.84516150951384,54.4 z" id="svg_147"/>
	<path d="M274.84516150951384,65.1 h-7 V47.3 h-18.7 v17.8 h-7 V23.3 h7 v18.4 h18.7 V23.3 h7 V65.1 z" id="svg_149"/>
</g><g class="" id="svg_151">
	<path d="M159.53870989084243,51.3 l0.1,0.2 c0.1,4.2 -1.3,7.7 -4.1,10.3 c-2.8,2.7 -6.7,4 -11.5,4 c-4.9,0 -8.9,-1.6 -11.9,-4.9 c-3.1,-3.3 -4.6,-7.5 -4.6,-12.6 v-8 c0,-5.1 1.5,-9.3 4.5,-12.6 c3,-3.3 6.9,-5 11.8,-5 c4.9,0 8.8,1.3 11.7,3.9 s4.2,6.1 4.2,10.5 l-0.1,0.2 H152.83870989084244 c0,-2.8 -0.8,-5 -2.3,-6.6 c-1.5,-1.6 -3.8,-2.4 -6.7,-2.4 c-2.9,0 -5.1,1.1 -6.8,3.4 c-1.7000000000000002,2.3 -2.5,5.1 -2.5,8.5 v8 c0,3.4 0.9,6.3 2.6,8.6 c1.7000000000000002,2.3 4,3.4 6.9,3.4 c2.9,0 5.1,-0.8 6.6,-2.3 c1.5,-1.5 2.2,-3.7 2.2,-6.6 H159.53870989084243 z" id="svg_153"/>
	<path d="M189.13870989084245,55.4 h-16.4 l-3.3,9.8 h-7.1 l15.4,-41.8 h6.6 l15.2,41.8 h-7.1 L189.13870989084245,55.4 zM174.73870989084244,49.5 h12.4 l-6.1,-17.9 H180.83870989084244 L174.73870989084244,49.5 z" id="svg_155"/>
	<path d="M227.03870989084243,54.4 c0,-1.7000000000000002 -0.6000000000000006,-3.2 -1.9,-4.3 s-3.6,-2.1 -6.9,-3 c-4.7,-1.2 -8.3,-2.8 -10.8,-4.9 c-2.5,-2 -3.8,-4.7 -3.8,-7.9 c0,-3.4 1.4,-6.1 4.2,-8.3 c2.8,-2.2 6.4,-3.3 10.8,-3.3 c4.6,0 8.3,1.2 11.1,3.7 c2.8,2.5 4.1,5.5 4,8.9 l-0.1,0.2 h-6.7 c0,-2.1 -0.7000000000000006,-3.9 -2.2,-5.2 c-1.5,-1.3 -3.5,-2 -6.2,-2 c-2.5,0 -4.5,0.6000000000000006 -5.9,1.7000000000000002 c-1.4,1.1 -2.1,2.5 -2.1,4.3 c0,1.6 0.7000000000000006,2.9 2.2,4 c1.5,1.1 3.9,2 7.4,3 c4.5,1.2 7.9,2.9 10.3,5 s3.5,4.8 3.5,8.1 c0,3.5 -1.4,6.3 -4.2,8.3 c-2.8,2.1 -6.5,3.1 -11,3.1 c-4.4,0 -8.2,-1.2 -11.5,-3.5 c-3.3,-2.3 -4.9,-5.5 -4.8,-9.5 l0.1,-0.2 h6.7 c0,2.5 0.9,4.4 2.6,5.7 c1.8,1.3 4.1,1.9 6.9,1.9 c2.6,0 4.6,-0.5 6,-1.6 C226.33870989084244,57.5 227.03870989084243,56.1 227.03870989084243,54.4 z" id="svg_157"/>
	<path d="M274.0387098908424,65.1 h-7 V47.3 h-18.7 v17.8 h-7 V23.3 h7 v18.4 h18.7 V23.3 h7 V65.1 z" id="svg_159"/>
</g><g class="" id="svg_161">
	<path d="M158.732258272171,51.3 l0.1,0.2 c0.1,4.2 -1.3,7.7 -4.1,10.3 c-2.8,2.7 -6.7,4 -11.5,4 c-4.9,0 -8.9,-1.6 -11.9,-4.9 c-3.1,-3.3 -4.6,-7.5 -4.6,-12.6 v-8 c0,-5.1 1.5,-9.3 4.5,-12.6 c3,-3.3 6.9,-5 11.8,-5 c4.9,0 8.8,1.3 11.7,3.9 s4.2,6.1 4.2,10.5 l-0.1,0.2 H152.03225827217102 c0,-2.8 -0.8,-5 -2.3,-6.6 c-1.5,-1.6 -3.8,-2.4 -6.7,-2.4 c-2.9,0 -5.1,1.1 -6.8,3.4 c-1.7000000000000002,2.3 -2.5,5.1 -2.5,8.5 v8 c0,3.4 0.9,6.3 2.6,8.6 c1.7000000000000002,2.3 4,3.4 6.9,3.4 c2.9,0 5.1,-0.8 6.6,-2.3 c1.5,-1.5 2.2,-3.7 2.2,-6.6 H158.732258272171 z" id="svg_163"/>
	<path d="M188.33225827217103,55.4 h-16.4 l-3.3,9.8 h-7.1 l15.4,-41.8 h6.6 l15.2,41.8 h-7.1 L188.33225827217103,55.4 zM173.93225827217103,49.5 h12.4 l-6.1,-17.9 H180.03225827217102 L173.93225827217103,49.5 z" id="svg_165"/>
	<path d="M226.232258272171,54.4 c0,-1.7000000000000002 -0.6000000000000006,-3.2 -1.9,-4.3 s-3.6,-2.1 -6.9,-3 c-4.7,-1.2 -8.3,-2.8 -10.8,-4.9 c-2.5,-2 -3.8,-4.7 -3.8,-7.9 c0,-3.4 1.4,-6.1 4.2,-8.3 c2.8,-2.2 6.4,-3.3 10.8,-3.3 c4.6,0 8.3,1.2 11.1,3.7 c2.8,2.5 4.1,5.5 4,8.9 l-0.1,0.2 h-6.7 c0,-2.1 -0.7000000000000006,-3.9 -2.2,-5.2 c-1.5,-1.3 -3.5,-2 -6.2,-2 c-2.5,0 -4.5,0.6000000000000006 -5.9,1.7000000000000002 c-1.4,1.1 -2.1,2.5 -2.1,4.3 c0,1.6 0.7000000000000006,2.9 2.2,4 c1.5,1.1 3.9,2 7.4,3 c4.5,1.2 7.9,2.9 10.3,5 s3.5,4.8 3.5,8.1 c0,3.5 -1.4,6.3 -4.2,8.3 c-2.8,2.1 -6.5,3.1 -11,3.1 c-4.4,0 -8.2,-1.2 -11.5,-3.5 c-3.3,-2.3 -4.9,-5.5 -4.8,-9.5 l0.1,-0.2 h6.7 c0,2.5 0.9,4.4 2.6,5.7 c1.8,1.3 4.1,1.9 6.9,1.9 c2.6,0 4.6,-0.5 6,-1.6 C225.53225827217102,57.5 226.232258272171,56.1 226.232258272171,54.4 z" id="svg_167"/>
	<path d="M273.232258272171,65.1 h-7 V47.3 h-18.7 v17.8 h-7 V23.3 h7 v18.4 h18.7 V23.3 h7 V65.1 z" id="svg_169"/>
</g><g class="" id="svg_171">
	<path d="M157.9258066534996,51.3 l0.1,0.2 c0.1,4.2 -1.3,7.7 -4.1,10.3 c-2.8,2.7 -6.7,4 -11.5,4 c-4.9,0 -8.9,-1.6 -11.9,-4.9 c-3.1,-3.3 -4.6,-7.5 -4.6,-12.6 v-8 c0,-5.1 1.5,-9.3 4.5,-12.6 c3,-3.3 6.9,-5 11.8,-5 c4.9,0 8.8,1.3 11.7,3.9 s4.2,6.1 4.2,10.5 l-0.1,0.2 H151.2258066534996 c0,-2.8 -0.8,-5 -2.3,-6.6 c-1.5,-1.6 -3.8,-2.4 -6.7,-2.4 c-2.9,0 -5.1,1.1 -6.8,3.4 c-1.7000000000000002,2.3 -2.5,5.1 -2.5,8.5 v8 c0,3.4 0.9,6.3 2.6,8.6 c1.7000000000000002,2.3 4,3.4 6.9,3.4 c2.9,0 5.1,-0.8 6.6,-2.3 c1.5,-1.5 2.2,-3.7 2.2,-6.6 H157.9258066534996 z" id="svg_173"/>
	<path d="M187.52580665349961,55.4 h-16.4 l-3.3,9.8 h-7.1 l15.4,-41.8 h6.6 l15.2,41.8 h-7.1 L187.52580665349961,55.4 zM173.1258066534996,49.5 h12.4 l-6.1,-17.9 H179.2258066534996 L173.1258066534996,49.5 z" id="svg_175"/>
	<path d="M225.4258066534996,54.4 c0,-1.7000000000000002 -0.6000000000000006,-3.2 -1.9,-4.3 s-3.6,-2.1 -6.9,-3 c-4.7,-1.2 -8.3,-2.8 -10.8,-4.9 c-2.5,-2 -3.8,-4.7 -3.8,-7.9 c0,-3.4 1.4,-6.1 4.2,-8.3 c2.8,-2.2 6.4,-3.3 10.8,-3.3 c4.6,0 8.3,1.2 11.1,3.7 c2.8,2.5 4.1,5.5 4,8.9 l-0.1,0.2 h-6.7 c0,-2.1 -0.7000000000000006,-3.9 -2.2,-5.2 c-1.5,-1.3 -3.5,-2 -6.2,-2 c-2.5,0 -4.5,0.6000000000000006 -5.9,1.7000000000000002 c-1.4,1.1 -2.1,2.5 -2.1,4.3 c0,1.6 0.7000000000000006,2.9 2.2,4 c1.5,1.1 3.9,2 7.4,3 c4.5,1.2 7.9,2.9 10.3,5 s3.5,4.8 3.5,8.1 c0,3.5 -1.4,6.3 -4.2,8.3 c-2.8,2.1 -6.5,3.1 -11,3.1 c-4.4,0 -8.2,-1.2 -11.5,-3.5 c-3.3,-2.3 -4.9,-5.5 -4.8,-9.5 l0.1,-0.2 h6.7 c0,2.5 0.9,4.4 2.6,5.7 c1.8,1.3 4.1,1.9 6.9,1.9 c2.6,0 4.6,-0.5 6,-1.6 C224.7258066534996,57.5 225.4258066534996,56.1 225.4258066534996,54.4 z" id="svg_177"/>
	<path d="M272.4258066534996,65.1 h-7 V47.3 h-18.7 v17.8 h-7 V23.3 h7 v18.4 h18.7 V23.3 h7 V65.1 z" id="svg_179"/>
</g><g class="" id="svg_181">
	<path d="M157.11935503482817,51.3 l0.1,0.2 c0.1,4.2 -1.3,7.7 -4.1,10.3 c-2.8,2.7 -6.7,4 -11.5,4 c-4.9,0 -8.9,-1.6 -11.9,-4.9 c-3.1,-3.3 -4.6,-7.5 -4.6,-12.6 v-8 c0,-5.1 1.5,-9.3 4.5,-12.6 c3,-3.3 6.9,-5 11.8,-5 c4.9,0 8.8,1.3 11.7,3.9 s4.2,6.1 4.2,10.5 l-0.1,0.2 H150.4193550348282 c0,-2.8 -0.8,-5 -2.3,-6.6 c-1.5,-1.6 -3.8,-2.4 -6.7,-2.4 c-2.9,0 -5.1,1.1 -6.8,3.4 c-1.7000000000000002,2.3 -2.5,5.1 -2.5,8.5 v8 c0,3.4 0.9,6.3 2.6,8.6 c1.7000000000000002,2.3 4,3.4 6.9,3.4 c2.9,0 5.1,-0.8 6.6,-2.3 c1.5,-1.5 2.2,-3.7 2.2,-6.6 H157.11935503482817 z" id="svg_183"/>
	<path d="M186.7193550348282,55.4 h-16.4 l-3.3,9.8 h-7.1 l15.4,-41.8 h6.6 l15.2,41.8 h-7.1 L186.7193550348282,55.4 zM172.3193550348282,49.5 h12.4 l-6.1,-17.9 H178.4193550348282 L172.3193550348282,49.5 z" id="svg_185"/>
	<path d="M224.61935503482817,54.4 c0,-1.7000000000000002 -0.6000000000000006,-3.2 -1.9,-4.3 s-3.6,-2.1 -6.9,-3 c-4.7,-1.2 -8.3,-2.8 -10.8,-4.9 c-2.5,-2 -3.8,-4.7 -3.8,-7.9 c0,-3.4 1.4,-6.1 4.2,-8.3 c2.8,-2.2 6.4,-3.3 10.8,-3.3 c4.6,0 8.3,1.2 11.1,3.7 c2.8,2.5 4.1,5.5 4,8.9 l-0.1,0.2 h-6.7 c0,-2.1 -0.7000000000000006,-3.9 -2.2,-5.2 c-1.5,-1.3 -3.5,-2 -6.2,-2 c-2.5,0 -4.5,0.6000000000000006 -5.9,1.7000000000000002 c-1.4,1.1 -2.1,2.5 -2.1,4.3 c0,1.6 0.7000000000000006,2.9 2.2,4 c1.5,1.1 3.9,2 7.4,3 c4.5,1.2 7.9,2.9 10.3,5 s3.5,4.8 3.5,8.1 c0,3.5 -1.4,6.3 -4.2,8.3 c-2.8,2.1 -6.5,3.1 -11,3.1 c-4.4,0 -8.2,-1.2 -11.5,-3.5 c-3.3,-2.3 -4.9,-5.5 -4.8,-9.5 l0.1,-0.2 h6.7 c0,2.5 0.9,4.4 2.6,5.7 c1.8,1.3 4.1,1.9 6.9,1.9 c2.6,0 4.6,-0.5 6,-1.6 C223.9193550348282,57.5 224.61935503482817,56.1 224.61935503482817,54.4 z" id="svg_187"/>
	<path d="M271.6193550348282,65.1 h-7 V47.3 h-18.7 v17.8 h-7 V23.3 h7 v18.4 h18.7 V23.3 h7 V65.1 z" id="svg_189"/>
</g><g class="" id="svg_191">
	<path d="M156.31290341615676,51.3 l0.1,0.2 c0.1,4.2 -1.3,7.7 -4.1,10.3 c-2.8,2.7 -6.7,4 -11.5,4 c-4.9,0 -8.9,-1.6 -11.9,-4.9 c-3.1,-3.3 -4.6,-7.5 -4.6,-12.6 v-8 c0,-5.1 1.5,-9.3 4.5,-12.6 c3,-3.3 6.9,-5 11.8,-5 c4.9,0 8.8,1.3 11.7,3.9 s4.2,6.1 4.2,10.5 l-0.1,0.2 H149.61290341615677 c0,-2.8 -0.8,-5 -2.3,-6.6 c-1.5,-1.6 -3.8,-2.4 -6.7,-2.4 c-2.9,0 -5.1,1.1 -6.8,3.4 c-1.7000000000000002,2.3 -2.5,5.1 -2.5,8.5 v8 c0,3.4 0.9,6.3 2.6,8.6 c1.7000000000000002,2.3 4,3.4 6.9,3.4 c2.9,0 5.1,-0.8 6.6,-2.3 c1.5,-1.5 2.2,-3.7 2.2,-6.6 H156.31290341615676 z" id="svg_193"/>
	<path d="M185.91290341615678,55.4 h-16.4 l-3.3,9.8 h-7.1 l15.4,-41.8 h6.6 l15.2,41.8 h-7.1 L185.91290341615678,55.4 zM171.51290341615677,49.5 h12.4 l-6.1,-17.9 H177.61290341615677 L171.51290341615677,49.5 z" id="svg_195"/>
	<path d="M223.81290341615676,54.4 c0,-1.7000000000000002 -0.6000000000000006,-3.2 -1.9,-4.3 s-3.6,-2.1 -6.9,-3 c-4.7,-1.2 -8.3,-2.8 -10.8,-4.9 c-2.5,-2 -3.8,-4.7 -3.8,-7.9 c0,-3.4 1.4,-6.1 4.2,-8.3 c2.8,-2.2 6.4,-3.3 10.8,-3.3 c4.6,0 8.3,1.2 11.1,3.7 c2.8,2.5 4.1,5.5 4,8.9 l-0.1,0.2 h-6.7 c0,-2.1 -0.7000000000000006,-3.9 -2.2,-5.2 c-1.5,-1.3 -3.5,-2 -6.2,-2 c-2.5,0 -4.5,0.6000000000000006 -5.9,1.7000000000000002 c-1.4,1.1 -2.1,2.5 -2.1,4.3 c0,1.6 0.7000000000000006,2.9 2.2,4 c1.5,1.1 3.9,2 7.4,3 c4.5,1.2 7.9,2.9 10.3,5 s3.5,4.8 3.5,8.1 c0,3.5 -1.4,6.3 -4.2,8.3 c-2.8,2.1 -6.5,3.1 -11,3.1 c-4.4,0 -8.2,-1.2 -11.5,-3.5 c-3.3,-2.3 -4.9,-5.5 -4.8,-9.5 l0.1,-0.2 h6.7 c0,2.5 0.9,4.4 2.6,5.7 c1.8,1.3 4.1,1.9 6.9,1.9 c2.6,0 4.6,-0.5 6,-1.6 C223.11290341615677,57.5 223.81290341615676,56.1 223.81290341615676,54.4 z" id="svg_197"/>
	<path d="M270.81290341615676,65.1 h-7 V47.3 h-18.7 v17.8 h-7 V23.3 h7 v18.4 h18.7 V23.3 h7 V65.1 z" id="svg_199"/>
</g><g class="" id="svg_201">
	<path d="M155.50645179748534,51.3 l0.1,0.2 c0.1,4.2 -1.3,7.7 -4.1,10.3 c-2.8,2.7 -6.7,4 -11.5,4 c-4.9,0 -8.9,-1.6 -11.9,-4.9 c-3.1,-3.3 -4.6,-7.5 -4.6,-12.6 v-8 c0,-5.1 1.5,-9.3 4.5,-12.6 c3,-3.3 6.9,-5 11.8,-5 c4.9,0 8.8,1.3 11.7,3.9 s4.2,6.1 4.2,10.5 l-0.1,0.2 H148.80645179748535 c0,-2.8 -0.8,-5 -2.3,-6.6 c-1.5,-1.6 -3.8,-2.4 -6.7,-2.4 c-2.9,0 -5.1,1.1 -6.8,3.4 c-1.7000000000000002,2.3 -2.5,5.1 -2.5,8.5 v8 c0,3.4 0.9,6.3 2.6,8.6 c1.7000000000000002,2.3 4,3.4 6.9,3.4 c2.9,0 5.1,-0.8 6.6,-2.3 c1.5,-1.5 2.2,-3.7 2.2,-6.6 H155.50645179748534 z" id="svg_203"/>
	<path d="M185.10645179748536,55.4 h-16.4 l-3.3,9.8 h-7.1 l15.4,-41.8 h6.6 l15.2,41.8 h-7.1 L185.10645179748536,55.4 zM170.70645179748536,49.5 h12.4 l-6.1,-17.9 H176.80645179748535 L170.70645179748536,49.5 z" id="svg_205"/>
	<path d="M223.00645179748534,54.4 c0,-1.7000000000000002 -0.6000000000000006,-3.2 -1.9,-4.3 s-3.6,-2.1 -6.9,-3 c-4.7,-1.2 -8.3,-2.8 -10.8,-4.9 c-2.5,-2 -3.8,-4.7 -3.8,-7.9 c0,-3.4 1.4,-6.1 4.2,-8.3 c2.8,-2.2 6.4,-3.3 10.8,-3.3 c4.6,0 8.3,1.2 11.1,3.7 c2.8,2.5 4.1,5.5 4,8.9 l-0.1,0.2 h-6.7 c0,-2.1 -0.7000000000000006,-3.9 -2.2,-5.2 c-1.5,-1.3 -3.5,-2 -6.2,-2 c-2.5,0 -4.5,0.6000000000000006 -5.9,1.7000000000000002 c-1.4,1.1 -2.1,2.5 -2.1,4.3 c0,1.6 0.7000000000000006,2.9 2.2,4 c1.5,1.1 3.9,2 7.4,3 c4.5,1.2 7.9,2.9 10.3,5 s3.5,4.8 3.5,8.1 c0,3.5 -1.4,6.3 -4.2,8.3 c-2.8,2.1 -6.5,3.1 -11,3.1 c-4.4,0 -8.2,-1.2 -11.5,-3.5 c-3.3,-2.3 -4.9,-5.5 -4.8,-9.5 l0.1,-0.2 h6.7 c0,2.5 0.9,4.4 2.6,5.7 c1.8,1.3 4.1,1.9 6.9,1.9 c2.6,0 4.6,-0.5 6,-1.6 C222.30645179748535,57.5 223.00645179748534,56.1 223.00645179748534,54.4 z" id="svg_207"/>
	<path d="M270.00645179748534,65.1 h-7 V47.3 h-18.7 v17.8 h-7 V23.3 h7 v18.4 h18.7 V23.3 h7 V65.1 z" id="svg_209"/>
</g><g class="" id="svg_211">
	<path d="M154.70000017881392,51.3 l0.1,0.2 c0.1,4.2 -1.3,7.7 -4.1,10.3 c-2.8,2.7 -6.7,4 -11.5,4 c-4.9,0 -8.9,-1.6 -11.9,-4.9 c-3.1,-3.3 -4.6,-7.5 -4.6,-12.6 v-8 c0,-5.1 1.5,-9.3 4.5,-12.6 c3,-3.3 6.9,-5 11.8,-5 c4.9,0 8.8,1.3 11.7,3.9 s4.2,6.1 4.2,10.5 l-0.1,0.2 H148.00000017881393 c0,-2.8 -0.8,-5 -2.3,-6.6 c-1.5,-1.6 -3.8,-2.4 -6.7,-2.4 c-2.9,0 -5.1,1.1 -6.8,3.4 c-1.7000000000000002,2.3 -2.5,5.1 -2.5,8.5 v8 c0,3.4 0.9,6.3 2.6,8.6 c1.7000000000000002,2.3 4,3.4 6.9,3.4 c2.9,0 5.1,-0.8 6.6,-2.3 c1.5,-1.5 2.2,-3.7 2.2,-6.6 H154.70000017881392 z" id="svg_213"/>
	<path d="M184.30000017881395,55.4 h-16.4 l-3.3,9.8 h-7.1 l15.4,-41.8 h6.6 l15.2,41.8 h-7.1 L184.30000017881395,55.4 zM169.90000017881394,49.5 h12.4 l-6.1,-17.9 H176.00000017881393 L169.90000017881394,49.5 z" id="svg_215"/>
	<path d="M222.20000017881392,54.4 c0,-1.7000000000000002 -0.6000000000000006,-3.2 -1.9,-4.3 s-3.6,-2.1 -6.9,-3 c-4.7,-1.2 -8.3,-2.8 -10.8,-4.9 c-2.5,-2 -3.8,-4.7 -3.8,-7.9 c0,-3.4 1.4,-6.1 4.2,-8.3 c2.8,-2.2 6.4,-3.3 10.8,-3.3 c4.6,0 8.3,1.2 11.1,3.7 c2.8,2.5 4.1,5.5 4,8.9 l-0.1,0.2 h-6.7 c0,-2.1 -0.7000000000000006,-3.9 -2.2,-5.2 c-1.5,-1.3 -3.5,-2 -6.2,-2 c-2.5,0 -4.5,0.6000000000000006 -5.9,1.7000000000000002 c-1.4,1.1 -2.1,2.5 -2.1,4.3 c0,1.6 0.7000000000000006,2.9 2.2,4 c1.5,1.1 3.9,2 7.4,3 c4.5,1.2 7.9,2.9 10.3,5 s3.5,4.8 3.5,8.1 c0,3.5 -1.4,6.3 -4.2,8.3 c-2.8,2.1 -6.5,3.1 -11,3.1 c-4.4,0 -8.2,-1.2 -11.5,-3.5 c-3.3,-2.3 -4.9,-5.5 -4.8,-9.5 l0.1,-0.2 h6.7 c0,2.5 0.9,4.4 2.6,5.7 c1.8,1.3 4.1,1.9 6.9,1.9 c2.6,0 4.6,-0.5 6,-1.6 C221.50000017881393,57.5 222.20000017881392,56.1 222.20000017881392,54.4 z" id="svg_217"/>
	<path d="M269.2000001788139,65.1 h-7 V47.3 h-18.7 v17.8 h-7 V23.3 h7 v18.4 h18.7 V23.3 h7 V65.1 z" id="svg_219"/>
</g><g class="" id="svg_221">
	<path d="M153.8935485601425,51.3 l0.1,0.2 c0.1,4.2 -1.3,7.7 -4.1,10.3 c-2.8,2.7 -6.7,4 -11.5,4 c-4.9,0 -8.9,-1.6 -11.9,-4.9 c-3.1,-3.3 -4.6,-7.5 -4.6,-12.6 v-8 c0,-5.1 1.5,-9.3 4.5,-12.6 c3,-3.3 6.9,-5 11.8,-5 c4.9,0 8.8,1.3 11.7,3.9 s4.2,6.1 4.2,10.5 l-0.1,0.2 H147.19354856014252 c0,-2.8 -0.8,-5 -2.3,-6.6 c-1.5,-1.6 -3.8,-2.4 -6.7,-2.4 c-2.9,0 -5.1,1.1 -6.8,3.4 c-1.7000000000000002,2.3 -2.5,5.1 -2.5,8.5 v8 c0,3.4 0.9,6.3 2.6,8.6 c1.7000000000000002,2.3 4,3.4 6.9,3.4 c2.9,0 5.1,-0.8 6.6,-2.3 c1.5,-1.5 2.2,-3.7 2.2,-6.6 H153.8935485601425 z" id="svg_223"/>
	<path d="M183.49354856014253,55.4 h-16.4 l-3.3,9.8 h-7.1 l15.4,-41.8 h6.6 l15.2,41.8 h-7.1 L183.49354856014253,55.4 zM169.09354856014252,49.5 h12.4 l-6.1,-17.9 H175.19354856014252 L169.09354856014252,49.5 z" id="svg_225"/>
	<path d="M221.3935485601425,54.4 c0,-1.7000000000000002 -0.6000000000000006,-3.2 -1.9,-4.3 s-3.6,-2.1 -6.9,-3 c-4.7,-1.2 -8.3,-2.8 -10.8,-4.9 c-2.5,-2 -3.8,-4.7 -3.8,-7.9 c0,-3.4 1.4,-6.1 4.2,-8.3 c2.8,-2.2 6.4,-3.3 10.8,-3.3 c4.6,0 8.3,1.2 11.1,3.7 c2.8,2.5 4.1,5.5 4,8.9 l-0.1,0.2 h-6.7 c0,-2.1 -0.7000000000000006,-3.9 -2.2,-5.2 c-1.5,-1.3 -3.5,-2 -6.2,-2 c-2.5,0 -4.5,0.6000000000000006 -5.9,1.7000000000000002 c-1.4,1.1 -2.1,2.5 -2.1,4.3 c0,1.6 0.7000000000000006,2.9 2.2,4 c1.5,1.1 3.9,2 7.4,3 c4.5,1.2 7.9,2.9 10.3,5 s3.5,4.8 3.5,8.1 c0,3.5 -1.4,6.3 -4.2,8.3 c-2.8,2.1 -6.5,3.1 -11,3.1 c-4.4,0 -8.2,-1.2 -11.5,-3.5 c-3.3,-2.3 -4.9,-5.5 -4.8,-9.5 l0.1,-0.2 h6.7 c0,2.5 0.9,4.4 2.6,5.7 c1.8,1.3 4.1,1.9 6.9,1.9 c2.6,0 4.6,-0.5 6,-1.6 C220.69354856014252,57.5 221.3935485601425,56.1 221.3935485601425,54.4 z" id="svg_227"/>
	<path d="M268.3935485601425,65.1 h-7 V47.3 h-18.7 v17.8 h-7 V23.3 h7 v18.4 h18.7 V23.3 h7 V65.1 z" id="svg_229"/>
</g><g class="" id="svg_231">
	<path d="M357.92581154108046,-94.66774291992188 l0.1,0.2 c0.1,4.2 -1.3,7.7 -4.1,10.3 c-2.8,2.7 -6.7,4 -11.5,4 c-4.9,0 -8.9,-1.6 -11.9,-4.9 c-3.1,-3.3 -4.6,-7.5 -4.6,-12.6 v-8 c0,-5.1 1.5,-9.3 4.5,-12.6 c3,-3.3 6.9,-5 11.8,-5 c4.9,0 8.8,1.3 11.7,3.9 s4.2,6.1 4.2,10.5 l-0.1,0.2 H351.2258115410805 c0,-2.8 -0.8,-5 -2.3,-6.6 c-1.5,-1.6 -3.8,-2.4 -6.7,-2.4 c-2.9,0 -5.1,1.1 -6.8,3.4 c-1.7000000000000002,2.3 -2.5,5.1 -2.5,8.5 v8 c0,3.4 0.9,6.3 2.6,8.6 c1.7000000000000002,2.3 4,3.4 6.9,3.4 c2.9,0 5.1,-0.8 6.6,-2.3 c1.5,-1.5 2.2,-3.7 2.2,-6.6 H357.92581154108046 z" id="svg_233"/>
	<path d="M387.5258115410805,-90.56774291992187 h-16.4 l-3.3,9.8 h-7.1 l15.4,-41.8 h6.6 l15.2,41.8 h-7.1 L387.5258115410805,-90.56774291992187 zM373.12581154108045,-96.46774291992188 h12.4 l-6.1,-17.9 H379.2258115410805 L373.12581154108045,-96.46774291992188 z" id="svg_235"/>
	<path d="M425.42581154108046,-91.56774291992187 c0,-1.7000000000000002 -0.6000000000000006,-3.2 -1.9,-4.3 s-3.6,-2.1 -6.9,-3 c-4.7,-1.2 -8.3,-2.8 -10.8,-4.9 c-2.5,-2 -3.8,-4.7 -3.8,-7.9 c0,-3.4 1.4,-6.1 4.2,-8.3 c2.8,-2.2 6.4,-3.3 10.8,-3.3 c4.6,0 8.3,1.2 11.1,3.7 c2.8,2.5 4.1,5.5 4,8.9 l-0.1,0.2 h-6.7 c0,-2.1 -0.7000000000000006,-3.9 -2.2,-5.2 c-1.5,-1.3 -3.5,-2 -6.2,-2 c-2.5,0 -4.5,0.6000000000000006 -5.9,1.7000000000000002 c-1.4,1.1 -2.1,2.5 -2.1,4.3 c0,1.6 0.7000000000000006,2.9 2.2,4 c1.5,1.1 3.9,2 7.4,3 c4.5,1.2 7.9,2.9 10.3,5 s3.5,4.8 3.5,8.1 c0,3.5 -1.4,6.3 -4.2,8.3 c-2.8,2.1 -6.5,3.1 -11,3.1 c-4.4,0 -8.2,-1.2 -11.5,-3.5 c-3.3,-2.3 -4.9,-5.5 -4.8,-9.5 l0.1,-0.2 h6.7 c0,2.5 0.9,4.4 2.6,5.7 c1.8,1.3 4.1,1.9 6.9,1.9 c2.6,0 4.6,-0.5 6,-1.6 C424.7258115410805,-88.46774291992188 425.42581154108046,-89.86774291992188 425.42581154108046,-91.56774291992187 z" id="svg_237"/>
	<path d="M472.42581154108046,-80.86774291992188 h-7 V-98.66774291992188 h-18.7 v17.8 h-7 V-122.66774291992188 h7 v18.4 h18.7 V-122.66774291992188 h7 V-80.86774291992188 z" id="svg_239"/>
</g></g></svg>